<?xml version="1.0" standalone="no"?>
<!DOCTYPE svg PUBLIC "-//W3C//DTD SVG 20010904//EN"
 "http://www.w3.org/TR/2001/REC-SVG-20010904/DTD/svg10.dtd">
<svg version="1.0" xmlns="http://www.w3.org/2000/svg"
 width="7200.000000pt" height="7166.000000pt" viewBox="0 0 7200.000000 7166.000000"
 preserveAspectRatio="xMidYMid meet">

<g transform="translate(0.000000,7166.000000) scale(0.100000,-0.100000)"
fill="#000000" stroke="none">
<path d="M11120 18838 c-320 -8 -355 -12 -396 -43 -32 -25 -112 -43 -279 -64
-48 -6 -82 -17 -108 -34 -24 -16 -59 -28 -95 -33 -64 -7 -97 -22 -129 -57 -12
-13 -48 -31 -82 -40 -34 -9 -61 -21 -61 -26 0 -15 -63 -50 -119 -66 -31 -10
-52 -22 -56 -34 -3 -10 -19 -24 -35 -31 -16 -7 -52 -34 -81 -61 -28 -28 -64
-53 -80 -56 -18 -3 -35 -17 -48 -38 -11 -20 -32 -37 -53 -44 -23 -8 -37 -21
-45 -41 -7 -20 -24 -35 -46 -45 -22 -9 -37 -23 -41 -40 -4 -16 -21 -32 -46
-45 -27 -14 -40 -27 -40 -41 0 -11 -18 -38 -40 -60 -22 -22 -40 -44 -40 -50 0
-5 -20 -31 -44 -57 -24 -26 -52 -67 -61 -92 -10 -25 -28 -54 -40 -65 -12 -11
-32 -42 -44 -69 -11 -26 -34 -64 -51 -82 -16 -19 -30 -42 -30 -52 -1 -24 -38
-103 -60 -127 -11 -12 -23 -48 -30 -90 -14 -92 -28 -133 -56 -171 -17 -23 -27
-59 -39 -137 -17 -116 -24 -138 -56 -179 -20 -24 -22 -44 -30 -225 -10 -238
-9 -2764 1 -3015 7 -169 8 -179 33 -215 29 -43 41 -83 57 -198 7 -44 18 -87
25 -95 23 -26 45 -91 59 -173 11 -60 20 -85 40 -106 15 -16 35 -55 45 -87 11
-36 30 -71 48 -90 18 -18 38 -53 47 -84 9 -29 25 -59 36 -67 12 -8 32 -38 45
-66 13 -29 39 -69 59 -90 20 -21 39 -49 42 -62 3 -13 21 -33 40 -44 18 -11 36
-31 40 -44 3 -14 23 -39 45 -56 21 -18 39 -39 39 -47 0 -8 15 -24 34 -35 19
-11 46 -36 61 -55 14 -18 32 -34 39 -34 15 0 56 -42 56 -57 0 -6 16 -17 35
-23 19 -6 47 -27 61 -46 15 -19 31 -34 36 -34 22 0 118 -51 127 -68 5 -10 27
-24 48 -30 22 -6 57 -27 80 -46 23 -21 59 -40 85 -45 47 -11 76 -24 123 -57
17 -11 64 -28 106 -38 52 -12 84 -25 99 -41 22 -24 93 -45 151 -45 36 0 148
-37 169 -55 28 -25 455 -48 780 -42 388 7 553 22 605 53 27 15 81 30 159 43
91 16 124 26 146 44 15 13 59 32 97 42 77 21 114 37 132 59 7 8 49 23 93 33
63 14 83 23 91 40 5 12 34 33 63 47 29 14 56 32 61 41 11 20 81 55 109 55 14
0 29 12 42 34 11 19 36 42 56 51 19 9 38 24 41 33 2 10 24 29 47 44 24 15 81
69 128 120 47 50 103 110 126 132 22 23 45 53 52 68 6 15 22 34 36 43 13 9 27
27 30 41 4 13 24 43 44 65 21 22 46 62 56 88 9 27 30 61 47 75 16 14 29 34 29
44 0 32 31 107 55 132 13 14 33 57 44 95 13 43 31 78 45 90 20 17 27 40 45
155 12 74 33 162 46 195 25 62 26 72 67 495 20 214 21 277 22 1345 1 853 -2
1145 -12 1225 -12 100 -18 162 -43 430 -5 63 -19 138 -29 165 -30 80 -48 154
-60 239 -8 64 -16 85 -39 111 -19 22 -34 56 -44 100 -10 43 -25 77 -41 94 -25
27 -56 98 -56 132 0 10 -13 27 -29 38 -16 11 -36 40 -46 63 -9 23 -33 62 -54
87 -21 26 -42 57 -46 71 -4 14 -23 38 -41 53 -19 16 -34 37 -34 47 0 21 -286
315 -316 324 -11 3 -27 17 -34 31 -7 13 -29 30 -48 36 -21 7 -41 24 -53 44
-12 20 -30 35 -47 38 -15 3 -49 24 -76 47 -27 22 -67 45 -90 51 -23 6 -56 23
-72 38 -16 15 -54 36 -84 46 -30 10 -67 31 -81 46 -19 20 -42 30 -90 39 -79
15 -147 36 -177 56 -13 9 -81 24 -150 35 -97 15 -139 27 -178 49 -38 21 -71
31 -125 35 -149 14 -511 20 -749 13z m439 -1309 c24 -5 57 -19 72 -30 21 -14
56 -22 140 -30 121 -11 148 -19 194 -53 16 -12 50 -30 75 -40 25 -9 59 -33 77
-52 18 -19 39 -34 47 -34 29 0 223 -181 232 -216 3 -12 18 -31 34 -43 17 -12
33 -37 40 -60 5 -21 21 -50 35 -65 31 -34 51 -71 60 -116 4 -19 17 -46 30 -60
36 -39 55 -121 66 -290 5 -85 14 -182 18 -215 5 -33 10 -557 10 -1164 1 -916
-1 -1125 -13 -1235 -8 -72 -20 -188 -25 -257 -11 -130 -25 -182 -60 -213 -11
-10 -25 -42 -32 -74 -9 -43 -20 -64 -50 -94 -23 -23 -39 -48 -39 -62 0 -13
-14 -43 -31 -67 -47 -65 -229 -239 -268 -256 -19 -8 -47 -28 -61 -43 -17 -18
-49 -35 -86 -45 -32 -10 -66 -25 -74 -36 -19 -23 -71 -44 -130 -54 -25 -4 -68
-18 -96 -31 -67 -32 -173 -44 -369 -45 -201 0 -325 14 -386 46 -25 13 -71 28
-102 34 -67 12 -117 36 -117 56 0 8 -18 19 -42 26 -86 22 -128 41 -139 60 -5
11 -30 29 -55 40 -27 13 -46 30 -50 44 -3 12 -20 28 -37 36 -18 8 -41 28 -52
46 -11 18 -25 32 -32 33 -17 0 -53 49 -53 72 0 10 -13 31 -29 46 -16 15 -43
55 -60 90 -17 34 -35 62 -40 62 -16 0 -40 65 -52 141 -7 41 -19 83 -29 94 -35
43 -43 81 -50 250 -9 235 -9 2510 0 2667 6 99 13 137 30 173 12 25 25 45 30
45 5 0 11 35 15 78 8 86 28 146 56 165 10 7 27 38 39 69 14 37 32 65 55 82 19
15 36 39 40 57 4 19 18 37 38 49 16 10 36 32 43 48 8 19 24 34 46 42 19 7 41
25 50 40 9 16 36 37 62 49 25 11 46 25 46 31 0 15 57 48 105 61 22 6 49 21 61
34 27 29 70 41 194 55 58 7 101 17 111 26 37 33 100 43 284 43 99 0 200 -4
224 -10z"/>
<path d="M54290 18843 c-52 -1 -167 -7 -256 -12 -145 -9 -166 -13 -225 -40
-43 -20 -101 -35 -179 -47 -84 -12 -128 -24 -166 -45 -27 -15 -87 -34 -131
-43 -64 -12 -87 -21 -110 -45 -17 -16 -53 -36 -82 -45 -30 -9 -61 -26 -72 -40
-19 -25 -95 -56 -135 -56 -15 0 -27 -9 -36 -27 -7 -16 -28 -35 -45 -44 -18 -9
-50 -32 -72 -52 -22 -20 -54 -43 -71 -52 -18 -9 -45 -31 -61 -50 -16 -18 -42
-38 -59 -45 -16 -7 -30 -18 -30 -25 0 -16 -56 -65 -74 -65 -6 0 -18 -16 -25
-36 -9 -25 -23 -40 -45 -49 -21 -9 -35 -25 -44 -47 -6 -18 -30 -52 -51 -75
-22 -23 -49 -59 -60 -80 -11 -21 -29 -44 -40 -50 -11 -7 -25 -31 -31 -54 -7
-23 -25 -56 -42 -73 -17 -17 -42 -54 -54 -83 -13 -28 -32 -57 -42 -62 -14 -7
-25 -34 -37 -83 -24 -106 -24 -103 -51 -143 -13 -20 -32 -71 -41 -113 -11 -52
-25 -89 -45 -114 -25 -33 -30 -52 -43 -165 -16 -139 -37 -243 -63 -313 -16
-41 -17 -172 -17 -1580 l0 -1535 24 -85 c32 -115 38 -146 56 -285 11 -82 20
-122 30 -128 23 -12 42 -56 55 -125 8 -40 23 -76 41 -98 15 -19 33 -52 39 -72
6 -20 16 -54 22 -74 6 -20 24 -49 40 -65 15 -15 33 -44 39 -65 5 -21 20 -48
33 -60 29 -30 50 -65 65 -109 7 -22 20 -39 32 -42 11 -3 28 -24 39 -50 13 -30
29 -48 49 -57 16 -6 36 -26 45 -44 8 -18 26 -37 40 -44 13 -6 34 -29 47 -51
12 -23 28 -41 35 -41 7 0 26 -18 43 -39 17 -21 42 -42 55 -45 13 -3 33 -20 44
-37 10 -17 30 -36 43 -43 13 -6 33 -26 44 -43 14 -22 35 -37 67 -48 26 -9 62
-30 80 -47 18 -17 52 -37 76 -44 24 -8 60 -27 81 -43 21 -17 59 -35 85 -41 47
-10 117 -41 146 -64 8 -7 50 -20 92 -30 45 -10 95 -30 122 -47 36 -24 61 -32
128 -39 83 -8 164 -33 183 -56 10 -11 51 -16 315 -31 189 -12 715 -8 894 7
137 11 163 15 193 36 35 23 92 38 196 50 35 4 65 13 75 24 26 27 59 41 141 62
41 10 84 27 96 37 23 22 99 51 134 51 14 0 37 14 55 33 17 18 55 43 85 56 30
12 65 36 78 51 13 16 36 31 52 35 27 6 57 29 170 132 31 28 69 56 84 62 15 6
32 22 37 35 5 14 27 37 50 51 22 14 40 31 40 39 0 12 24 41 138 161 21 22 44
56 51 75 8 19 26 46 41 60 15 14 37 46 48 72 11 26 33 60 48 75 15 15 32 48
39 74 7 27 26 67 42 91 16 24 37 74 47 111 12 44 28 78 46 95 20 21 31 47 43
106 10 47 28 96 46 124 24 38 30 62 36 127 12 152 47 407 62 459 14 44 17 166
22 873 3 452 4 844 3 871 l-4 50 -46 6 c-60 8 -2426 8 -2447 0 -13 -5 -15 -82
-15 -628 0 -470 3 -625 12 -634 9 -9 136 -12 507 -12 298 0 510 -4 532 -10 90
-25 108 -95 91 -342 -11 -150 -16 -180 -37 -225 -14 -28 -32 -87 -40 -130 -12
-64 -20 -83 -45 -106 -22 -19 -33 -42 -40 -77 -13 -71 -35 -117 -59 -125 -12
-3 -24 -19 -29 -36 -4 -17 -25 -51 -47 -75 -89 -100 -165 -174 -180 -174 -8 0
-20 -11 -27 -25 -10 -22 -45 -44 -95 -59 -11 -4 -24 -13 -27 -21 -8 -23 -55
-42 -143 -58 -55 -11 -89 -23 -103 -37 -29 -29 -57 -38 -152 -49 -159 -19
-314 -23 -483 -12 -216 15 -282 26 -322 57 -17 13 -56 29 -85 35 -110 22 -139
32 -156 54 -10 12 -34 27 -54 34 -20 7 -56 29 -80 50 -23 21 -58 46 -76 55
-17 9 -43 34 -57 55 -13 22 -33 42 -44 46 -11 3 -29 22 -41 41 -11 20 -38 57
-59 83 -21 25 -44 62 -50 83 -7 20 -18 38 -25 41 -19 8 -46 70 -56 131 -5 30
-20 72 -34 93 -14 21 -31 61 -38 88 -15 66 -24 2480 -9 2705 9 142 13 159 41
215 17 33 35 89 41 124 12 78 33 130 59 148 11 8 20 24 20 36 1 33 38 110 63
129 12 9 26 31 32 50 8 23 23 39 48 51 24 12 37 26 37 38 0 27 108 136 143
144 16 4 34 19 42 35 8 16 31 34 52 43 21 8 61 30 88 49 29 19 77 40 110 47
33 7 69 21 80 31 11 10 38 23 60 29 64 16 448 34 588 27 148 -7 202 -18 270
-52 27 -13 55 -24 62 -24 34 0 112 -34 140 -61 17 -16 45 -31 62 -35 18 -3 49
-21 70 -39 21 -18 57 -42 81 -54 23 -12 51 -36 61 -52 11 -17 33 -40 50 -50
17 -10 36 -30 41 -43 7 -19 27 -38 78 -71 1 -1 12 -28 23 -60 11 -32 30 -66
42 -75 12 -10 31 -43 41 -75 19 -55 21 -57 50 -50 17 4 333 9 701 11 369 3
676 6 683 9 18 6 16 119 -2 134 -24 20 -53 93 -66 169 -9 46 -20 78 -30 85
-25 18 -46 64 -60 131 -7 33 -20 67 -30 75 -20 19 -60 111 -60 140 0 11 -10
27 -23 35 -12 9 -35 41 -51 73 -16 32 -42 70 -58 85 -15 15 -31 41 -34 57 -4
16 -22 44 -40 61 -19 17 -34 34 -34 38 0 4 -25 33 -55 66 -30 32 -59 73 -65
90 -7 22 -20 36 -43 44 -17 6 -40 25 -49 42 -10 17 -25 33 -35 37 -9 4 -55 44
-102 91 -47 46 -108 95 -134 108 -26 14 -52 35 -58 47 -6 13 -29 32 -52 43
-23 10 -46 29 -52 41 -6 16 -24 26 -60 34 -63 15 -102 34 -114 57 -5 10 -37
26 -72 36 -57 18 -72 27 -106 69 -6 8 -39 17 -76 21 -64 6 -169 44 -182 65 -3
6 -16 11 -28 11 -63 0 -250 44 -284 67 -33 22 -52 26 -172 33 -178 11 -442 17
-561 13z"/>
<path d="M35420 18777 c-11 -11 -272 -17 -732 -17 -443 -1 -489 -3 -508 -18
l-20 -17 0 -3680 c0 -3489 1 -3680 18 -3697 16 -16 66 -18 651 -22 614 -4 636
-4 673 15 l38 19 5 3543 c3 1948 5 3609 5 3691 0 109 -3 153 -12 162 -13 13
-109 30 -118 21z"/>
<path d="M37211 18761 c-17 -31 -16 -7390 1 -7427 l12 -26 146 6 c194 8 452
10 754 7 137 -1 251 1 255 4 3 4 8 1144 11 2533 6 2701 3 2575 52 2619 14 12
24 14 35 7 17 -11 56 -77 68 -114 4 -14 13 -32 21 -40 23 -27 45 -101 60 -209
12 -87 19 -109 44 -141 22 -28 33 -57 44 -119 8 -45 21 -90 30 -99 26 -30 43
-83 61 -192 11 -72 24 -116 40 -140 27 -41 41 -90 51 -178 5 -47 14 -71 35
-98 27 -34 40 -78 54 -179 4 -28 20 -69 35 -92 26 -40 41 -97 55 -210 5 -36
15 -61 35 -83 22 -25 32 -51 45 -123 9 -51 24 -104 35 -118 28 -40 47 -105 60
-217 7 -58 18 -105 25 -110 25 -15 44 -60 59 -141 8 -46 22 -91 30 -100 23
-25 45 -95 62 -194 10 -56 24 -101 39 -123 24 -36 38 -88 50 -187 5 -41 15
-67 36 -93 31 -40 33 -44 49 -129 6 -33 25 -87 41 -120 17 -34 34 -91 40 -130
24 -168 28 -188 48 -201 23 -17 39 -62 51 -145 5 -37 17 -70 28 -83 22 -24 36
-64 53 -152 10 -57 13 -62 41 -68 44 -9 1131 -7 1144 2 5 4 18 28 28 55 10 26
27 53 38 61 16 12 21 32 29 122 11 127 22 174 54 223 12 20 26 57 29 81 13 80
37 155 59 178 15 16 26 51 38 125 10 61 29 128 47 167 16 36 33 88 37 115 14
101 27 145 54 179 21 26 30 52 35 97 8 68 36 151 60 178 9 10 22 61 30 121 19
129 30 170 57 203 15 20 49 153 49 194 0 1 13 17 29 36 25 28 31 47 41 123 13
102 36 188 60 224 10 14 25 69 35 124 14 77 24 105 45 130 21 25 30 51 43 136
13 76 24 114 43 141 16 24 28 60 35 105 16 113 35 182 62 222 14 20 28 60 32
87 11 83 24 121 55 160 22 27 30 48 30 77 0 64 29 189 59 253 16 33 31 80 35
105 12 78 26 118 52 149 17 20 30 56 41 108 25 123 68 162 121 113 12 -12 23
-22 24 -23 2 -1 5 -1163 8 -2582 l5 -2580 40 -19 c38 -17 70 -18 575 -17 530
2 535 2 553 23 16 19 17 201 17 3690 0 3340 -2 3672 -16 3694 l-16 24 -844 0
c-831 0 -843 0 -877 -20 -41 -25 -62 -65 -72 -139 -9 -68 -29 -117 -54 -130
-15 -8 -20 -31 -30 -118 -15 -135 -34 -214 -59 -257 -12 -20 -27 -79 -37 -138
-13 -85 -21 -109 -45 -140 -25 -31 -31 -50 -40 -125 -11 -99 -30 -171 -55
-209 -9 -14 -25 -74 -35 -134 -19 -109 -28 -135 -60 -177 -10 -13 -21 -49 -24
-80 -13 -108 -28 -168 -51 -205 -17 -25 -27 -62 -35 -123 -20 -158 -40 -231
-69 -249 -5 -4 -14 -39 -21 -79 -18 -112 -30 -150 -55 -177 -20 -21 -26 -43
-35 -129 -12 -109 -29 -175 -60 -226 -10 -16 -21 -55 -25 -85 -12 -99 -35
-184 -60 -220 -16 -25 -27 -61 -35 -125 -8 -67 -20 -106 -45 -155 -28 -53 -37
-87 -49 -183 -12 -94 -21 -128 -44 -170 -17 -29 -33 -76 -37 -107 -11 -80 -31
-139 -56 -166 -18 -19 -25 -45 -36 -141 -9 -84 -22 -140 -43 -195 -17 -42 -37
-112 -46 -155 -19 -104 -32 -140 -54 -156 -13 -9 -22 -39 -33 -114 -8 -55 -23
-112 -32 -127 -18 -27 -59 -40 -116 -34 -45 4 -63 41 -84 173 -9 61 -27 126
-45 165 -20 46 -33 98 -43 176 -12 89 -19 116 -36 133 -29 29 -38 55 -55 160
-9 56 -22 100 -35 118 -24 32 -46 132 -56 248 -6 67 -12 87 -37 123 -24 35
-33 63 -45 139 -10 71 -20 104 -38 127 -25 33 -48 121 -60 231 -4 37 -18 83
-37 119 -22 42 -34 86 -44 159 -11 73 -20 107 -34 122 -26 27 -36 60 -55 174
-9 52 -24 110 -34 130 -28 55 -49 137 -60 240 -8 77 -14 99 -34 120 -29 31
-32 40 -51 149 -8 46 -22 95 -31 108 -25 39 -43 109 -56 219 -9 74 -17 109
-35 135 -32 48 -39 72 -54 170 -7 50 -20 96 -31 112 -30 43 -40 74 -60 197
-11 67 -25 121 -35 132 -23 25 -41 96 -53 203 -9 78 -15 100 -36 121 -30 34
-41 67 -55 180 -6 49 -17 97 -25 105 -20 23 -45 106 -57 191 -6 43 -15 83 -19
91 -7 10 -165 14 -836 19 -455 4 -853 10 -884 14 -52 7 -58 6 -68 -14z"/>
<path d="M6340 18760 c-403 -4 -521 -8 -541 -18 -25 -13 -26 -18 -33 -134 -3
-67 -6 -1267 -6 -2667 0 -2001 -3 -2551 -13 -2570 -15 -31 -71 -48 -103 -30
-13 7 -32 35 -45 68 -12 31 -35 70 -50 86 -16 17 -36 55 -45 85 -9 30 -27 66
-40 79 -24 24 -49 92 -61 164 -3 20 -11 37 -18 37 -20 0 -41 32 -60 89 -10 30
-27 64 -37 75 -29 31 -44 64 -57 125 -7 35 -19 60 -35 72 -24 19 -56 95 -56
131 0 11 -14 32 -31 47 -22 21 -36 48 -50 97 -10 37 -26 72 -34 77 -23 12 -42
56 -54 121 -8 45 -18 66 -40 85 -17 15 -37 49 -47 81 -10 30 -26 62 -35 70
-25 22 -47 72 -60 132 -7 32 -20 59 -34 70 -13 10 -32 47 -45 87 -14 46 -30
75 -46 85 -15 10 -29 36 -40 73 -20 72 -28 90 -58 130 -13 18 -30 57 -37 85
-7 33 -25 68 -46 93 -18 21 -40 60 -47 85 -7 25 -27 67 -44 93 -17 28 -35 75
-42 113 -10 50 -20 73 -45 99 -17 19 -37 53 -44 76 -7 23 -26 59 -41 78 -15
20 -36 63 -46 96 -10 33 -28 70 -41 83 -12 13 -32 53 -43 88 -12 36 -34 79
-50 95 -17 19 -34 57 -45 97 -12 45 -27 76 -45 93 -20 18 -31 43 -40 85 -17
87 -18 90 -45 104 -22 12 -55 73 -55 104 0 7 -13 30 -30 50 -28 36 -60 123
-60 165 0 11 -11 28 -24 36 -23 15 -47 66 -62 130 -4 17 -16 36 -26 43 -24 17
-44 57 -59 118 -7 28 -22 57 -35 67 -21 16 -45 75 -59 143 -4 19 -16 36 -31
44 -18 10 -30 32 -46 84 -13 43 -30 78 -44 89 -16 12 -27 39 -39 95 -12 55
-24 83 -40 97 -25 21 -64 98 -65 127 0 9 -11 28 -25 41 -14 13 -37 56 -52 98
-14 41 -38 88 -53 105 -15 18 -33 54 -40 82 -8 36 -18 52 -33 58 -12 4 -373
10 -802 11 -716 4 -783 2 -817 -13 l-38 -17 0 -3581 c0 -1970 3 -3625 7 -3679
l6 -98 38 -20 c37 -18 64 -19 608 -19 554 0 571 1 581 19 7 14 10 854 10 2643
0 2515 1 2625 19 2663 10 22 26 46 35 54 16 13 20 11 42 -15 13 -16 32 -42 40
-59 9 -16 31 -42 48 -56 22 -19 36 -43 45 -80 8 -33 27 -68 46 -90 22 -25 35
-53 45 -100 10 -45 21 -71 40 -89 15 -14 35 -50 45 -80 9 -30 28 -66 41 -81
13 -14 34 -54 45 -90 12 -35 33 -76 46 -90 15 -16 33 -57 44 -99 13 -50 26
-78 43 -91 14 -11 33 -46 46 -84 12 -36 30 -70 40 -75 21 -11 38 -54 50 -128
7 -40 17 -60 43 -85 24 -23 38 -48 47 -86 9 -37 22 -62 40 -78 20 -16 33 -43
45 -90 10 -38 26 -75 35 -83 24 -20 46 -67 60 -123 7 -25 18 -48 26 -51 16 -6
64 -102 64 -128 0 -10 13 -32 29 -51 19 -21 37 -60 49 -106 13 -47 27 -78 41
-87 25 -18 46 -56 56 -104 4 -19 20 -48 35 -65 28 -30 43 -68 54 -136 4 -20
17 -45 32 -58 25 -22 63 -93 64 -119 0 -7 13 -30 30 -50 17 -22 36 -64 46
-102 9 -36 24 -74 33 -85 31 -36 49 -72 56 -109 4 -20 23 -55 41 -77 19 -23
41 -65 49 -94 9 -29 23 -59 31 -66 23 -19 43 -62 55 -119 7 -31 24 -65 45 -91
19 -23 37 -53 40 -68 9 -43 26 -81 35 -81 16 0 48 -63 59 -116 7 -31 24 -69
45 -96 18 -23 39 -63 45 -87 6 -25 27 -64 45 -88 18 -23 38 -63 44 -89 7 -25
25 -63 42 -84 17 -20 37 -64 45 -96 9 -32 28 -74 43 -94 16 -19 36 -58 45 -87
9 -28 24 -57 32 -64 23 -19 41 -60 60 -135 13 -49 25 -75 44 -91 17 -14 33
-43 43 -80 11 -37 28 -68 46 -86 21 -20 34 -45 44 -93 12 -49 24 -74 46 -96
17 -17 31 -35 31 -40 0 -6 7 -33 15 -62 14 -48 20 -54 63 -74 48 -22 49 -22
844 -22 l795 0 11 25 c9 20 12 933 12 3698 0 3308 -2 3675 -16 3695 -13 19
-23 22 -82 20 -37 -2 -299 -5 -582 -8z"/>
<path d="M26769 18766 c-3 -3 -1183 -6 -2622 -6 -2494 -1 -2617 -1 -2626 -18
-12 -23 -16 -1187 -3 -1227 l8 -30 405 5 c666 8 1516 3 1555 -10 19 -6 41 -21
49 -33 13 -19 15 -372 16 -3047 1 -1664 4 -3036 8 -3049 l6 -24 626 -2 625 -2
27 23 27 23 0 3016 0 3016 27 35 c17 21 44 39 68 47 30 9 225 11 815 10 426
-1 843 -3 927 -4 140 -2 154 0 187 21 20 12 41 30 46 40 6 12 10 236 10 600
l0 581 -37 16 c-39 17 -134 29 -144 19z"/>
<path d="M65880 18760 c-601 -4 -762 -8 -787 -18 l-33 -14 0 -3596 c0 -1979 3
-3635 7 -3681 l6 -83 41 -19 c38 -17 77 -19 618 -19 l578 0 5 23 c3 12 6 1203
8 2647 2 2605 2 2625 22 2659 31 53 49 60 81 31 14 -14 33 -38 41 -55 9 -16
28 -41 44 -55 17 -15 34 -46 44 -80 8 -30 28 -68 44 -85 19 -19 35 -52 46 -95
10 -39 26 -73 40 -86 14 -12 33 -52 45 -92 13 -41 31 -78 45 -90 13 -11 31
-45 41 -75 9 -30 29 -68 44 -85 18 -21 33 -57 45 -109 14 -59 25 -83 46 -100
16 -14 35 -46 45 -76 9 -29 29 -66 45 -82 20 -22 33 -52 45 -102 12 -53 22
-76 39 -87 22 -15 55 -91 55 -129 0 -11 15 -35 33 -52 23 -22 39 -52 51 -93 9
-33 24 -66 33 -73 20 -17 39 -62 53 -126 7 -28 23 -60 39 -78 16 -16 39 -58
51 -92 12 -34 28 -64 36 -67 16 -6 42 -65 55 -129 7 -30 18 -51 31 -58 22 -12
57 -82 58 -116 0 -12 15 -38 34 -57 32 -31 56 -87 56 -128 0 -10 13 -32 29
-50 16 -19 37 -58 46 -88 24 -79 33 -100 45 -100 13 0 45 -63 59 -118 7 -23
16 -42 21 -42 14 0 49 -73 61 -129 6 -30 24 -67 45 -93 19 -24 37 -60 41 -83
4 -24 17 -49 34 -65 30 -27 44 -57 59 -126 5 -24 21 -54 35 -69 29 -28 55 -83
55 -115 0 -11 8 -28 18 -38 35 -35 59 -78 71 -127 7 -27 16 -52 20 -55 23 -16
55 -79 67 -133 10 -40 25 -72 43 -92 16 -16 35 -51 44 -77 9 -26 29 -64 46
-85 16 -21 35 -60 41 -88 6 -27 26 -72 44 -100 19 -27 39 -68 46 -90 7 -22 26
-55 41 -73 16 -17 36 -58 45 -89 9 -31 31 -77 49 -102 18 -25 38 -71 45 -101
8 -35 23 -66 41 -86 17 -17 37 -55 46 -88 9 -32 28 -71 42 -87 16 -17 34 -59
46 -105 l20 -76 50 -19 c48 -18 89 -19 841 -19 l791 0 11 25 c19 41 16 7363
-2 7388 -12 16 -52 17 -588 17 -499 0 -581 -2 -621 -16 l-47 -16 -2 -2678 c-3
-2617 -3 -2678 -22 -2699 -21 -23 -56 -27 -86 -11 -11 6 -29 37 -41 69 -11 33
-32 70 -45 82 -14 13 -33 52 -45 93 -12 39 -32 82 -45 96 -13 14 -32 55 -43
91 -12 36 -31 75 -44 87 -13 13 -32 50 -42 83 -10 33 -29 70 -42 84 -27 27
-53 101 -53 151 0 18 -7 39 -16 46 -49 40 -62 59 -74 109 -7 30 -21 60 -32 67
-24 17 -42 55 -57 117 -7 28 -23 61 -36 75 -13 14 -33 54 -45 90 -12 36 -32
75 -44 86 -12 12 -30 43 -40 70 -24 67 -33 85 -55 114 -11 14 -29 58 -39 98
-14 52 -27 78 -45 92 -16 13 -33 43 -43 78 -10 31 -28 68 -40 82 -26 28 -40
62 -55 128 -5 25 -24 61 -43 83 -21 25 -37 58 -45 93 -7 30 -18 57 -26 60 -20
7 -50 71 -65 136 -7 30 -24 68 -36 83 -13 16 -27 41 -30 55 -15 70 -35 114
-67 145 -19 19 -37 48 -40 64 -3 16 -22 49 -41 71 -24 30 -38 60 -46 100 -17
85 -19 91 -46 108 -15 10 -30 36 -39 67 -8 28 -31 73 -50 101 -23 35 -38 72
-47 119 -9 48 -18 69 -30 73 -22 7 -43 45 -59 110 -8 31 -24 59 -45 79 -23 22
-35 46 -45 90 -8 39 -21 66 -35 78 -21 16 -43 69 -58 139 -3 14 -19 39 -34 55
-15 15 -36 54 -46 86 -10 32 -29 69 -41 81 -22 22 -31 45 -55 142 -6 23 -17
45 -25 48 -16 6 -65 100 -65 125 0 7 -15 31 -34 51 -24 27 -38 55 -47 96 -7
33 -20 66 -29 74 -25 22 -48 71 -56 121 -5 28 -17 52 -34 69 -33 30 -56 73
-65 122 -4 21 -14 43 -22 49 -21 18 -51 81 -63 132 -6 27 -22 57 -39 75 -17
17 -36 52 -46 84 -17 59 -19 61 -105 71 -14 2 -365 0 -780 -3z"/>
<path d="M15620 18753 c-14 -3 -28 -10 -32 -17 -4 -6 -8 -1668 -8 -3692 0
-3412 1 -3683 17 -3695 13 -11 132 -15 627 -21 l611 -7 38 25 37 24 0 88 c0
48 2 695 3 1437 2 993 6 1361 14 1390 23 79 3 76 481 73 l424 -3 21 -28 c12
-16 39 -46 59 -67 24 -25 43 -58 54 -96 10 -36 26 -66 43 -80 17 -14 34 -45
46 -83 11 -37 27 -66 40 -75 12 -8 33 -40 45 -72 13 -31 34 -68 47 -82 13 -14
31 -50 39 -80 9 -31 30 -70 50 -92 19 -20 41 -57 49 -81 9 -24 22 -47 30 -52
19 -10 50 -70 64 -124 6 -22 18 -43 26 -47 16 -6 65 -97 65 -121 0 -8 14 -27
30 -42 18 -15 37 -48 46 -78 9 -29 31 -68 48 -88 18 -21 37 -56 43 -80 7 -24
28 -60 47 -80 20 -21 40 -55 46 -76 5 -21 19 -46 30 -56 20 -19 60 -113 60
-143 0 -10 13 -28 30 -40 16 -12 38 -43 49 -68 12 -25 34 -61 50 -79 16 -19
36 -58 45 -88 9 -30 32 -74 51 -97 19 -23 35 -52 35 -65 0 -12 18 -45 40 -71
22 -27 45 -64 51 -84 7 -19 24 -49 39 -66 15 -17 35 -60 44 -96 14 -49 24 -67
46 -80 18 -10 34 -33 45 -64 10 -27 31 -63 47 -80 16 -17 36 -56 45 -88 12
-43 27 -68 62 -102 l46 -45 752 3 c860 4 796 -4 772 87 -9 37 -22 58 -44 75
-21 16 -38 43 -50 80 -11 31 -31 67 -46 80 -15 14 -31 43 -38 72 -7 27 -29 69
-51 96 -21 27 -42 62 -45 79 -4 18 -16 35 -30 41 -25 11 -49 59 -60 119 -5 26
-14 38 -34 46 -21 8 -32 22 -45 64 -10 29 -31 70 -47 91 -17 20 -37 57 -45 82
-9 26 -20 46 -25 46 -14 0 -47 60 -64 115 -10 36 -22 55 -42 66 -19 10 -34 32
-47 70 -11 30 -32 65 -46 79 -16 15 -34 49 -44 82 -9 31 -20 58 -25 60 -15 5
-61 80 -61 98 0 9 -17 34 -38 56 -27 27 -43 56 -52 90 -9 37 -20 54 -40 66
-19 11 -33 32 -45 69 -10 30 -32 70 -50 89 -19 19 -38 54 -44 76 -6 23 -19 48
-28 55 -21 18 -52 87 -53 117 0 13 -17 39 -39 61 -23 23 -47 60 -58 90 -10 28
-23 51 -29 51 -18 0 -40 32 -57 83 -9 27 -30 64 -46 83 -17 18 -35 51 -41 73
-6 23 -21 46 -36 56 -25 16 -64 91 -64 124 0 10 -11 23 -24 30 -34 18 -46 52
-46 126 0 56 3 66 26 84 14 11 51 25 82 32 31 6 69 21 83 33 23 20 69 38 129
50 14 3 49 24 79 46 30 23 67 44 83 47 16 3 33 14 39 25 6 11 40 33 75 50 39
18 75 44 91 64 14 19 36 37 49 40 13 3 32 21 43 39 11 20 32 37 53 44 25 8 37
20 47 46 7 21 24 41 42 50 16 9 29 22 29 30 0 8 20 35 46 60 25 25 56 69 69
99 13 30 32 60 42 68 11 7 27 34 37 61 10 26 33 66 52 88 19 23 34 49 34 58 0
34 32 109 56 131 13 13 24 33 24 44 0 48 41 213 64 260 20 41 28 81 41 211 8
88 22 216 31 285 17 134 16 215 -10 430 -8 69 -19 180 -25 247 -8 99 -15 130
-36 172 -17 31 -35 95 -48 169 -17 90 -29 129 -50 158 -15 22 -34 64 -43 94
-9 30 -29 69 -45 87 -15 18 -33 51 -39 73 -6 22 -21 50 -34 62 -29 27 -66 96
-66 120 0 10 -13 24 -30 33 -16 8 -39 33 -50 55 -11 22 -27 40 -35 40 -9 0
-28 20 -42 44 -15 25 -37 49 -49 55 -13 5 -31 22 -40 36 -9 14 -34 35 -55 45
-21 11 -40 29 -44 40 -4 11 -26 30 -50 41 -26 12 -45 29 -49 42 -4 17 -20 26
-67 40 -42 12 -72 29 -93 51 -20 20 -52 38 -87 49 -34 10 -66 28 -81 46 -20
22 -38 30 -82 35 -71 9 -183 41 -203 58 -44 36 -198 40 -2013 43 -971 1 -1776
0 -1790 -2z m3181 -1255 c16 -10 66 -20 136 -27 126 -13 169 -25 184 -52 5
-10 24 -25 42 -33 40 -17 147 -128 147 -153 0 -11 11 -23 29 -29 21 -8 33 -24
46 -60 10 -27 26 -58 36 -69 35 -40 50 -96 60 -233 5 -75 17 -156 25 -180 18
-55 18 -130 0 -174 -8 -19 -18 -81 -21 -139 -9 -158 -23 -226 -54 -263 -15
-17 -35 -53 -45 -80 -10 -26 -28 -56 -39 -65 -35 -28 -52 -47 -69 -80 -9 -17
-27 -35 -40 -40 -13 -5 -33 -22 -45 -39 -21 -29 -93 -62 -134 -62 -10 0 -23
-9 -29 -20 -18 -34 -66 -50 -173 -59 -56 -5 -504 -8 -994 -7 -886 1 -893 1
-913 22 -12 12 -24 43 -30 75 -5 30 -9 415 -9 856 -1 875 -3 844 56 903 20 20
38 26 92 30 36 3 437 3 891 0 748 -5 828 -7 851 -22z"/>
<path d="M27902 18740 c-16 -27 -18 -7346 -1 -7383 l11 -24 1046 -6 c576 -3
1677 -4 2446 -2 1251 4 1401 6 1415 20 14 14 17 84 21 557 3 297 3 561 1 585
-3 37 -8 48 -34 63 -29 18 -96 19 -1760 20 -1681 1 -1732 1 -1761 20 -17 10
-44 33 -61 50 l-30 31 -3 802 c-2 903 -7 850 73 891 40 21 46 21 1478 23 1421
3 1438 3 1477 23 23 12 42 30 45 43 3 12 4 283 3 602 l-3 580 -40 7 c-22 4
-688 7 -1480 6 -1168 -1 -1445 1 -1465 12 -39 21 -68 57 -79 98 -5 21 -10 381
-11 843 l-1 806 30 30 c64 64 -41 61 1801 58 921 -1 1698 0 1725 2 44 4 54 9
73 37 l22 32 0 581 0 581 -25 16 c-22 15 -235 16 -2462 16 -2422 0 -2438 0
-2451 -20z"/>
<path d="M47573 18741 c-13 -11 -23 -24 -23 -30 0 -5 -11 -22 -25 -37 -14 -15
-25 -36 -25 -48 0 -45 -30 -130 -54 -155 -16 -17 -31 -51 -41 -96 -23 -99 -23
-99 -55 -140 -17 -21 -30 -50 -30 -65 0 -44 -29 -127 -55 -158 -13 -16 -31
-59 -41 -96 -9 -36 -30 -85 -46 -107 -24 -33 -32 -60 -43 -133 -12 -90 -33
-155 -59 -186 -7 -8 -21 -45 -30 -81 -12 -45 -27 -76 -46 -94 -19 -18 -30 -41
-35 -71 -9 -63 -40 -150 -65 -181 -11 -14 -20 -32 -20 -40 0 -47 -35 -156 -60
-188 -17 -22 -34 -59 -41 -93 -13 -66 -32 -107 -55 -120 -11 -6 -21 -37 -30
-97 -15 -90 -45 -175 -62 -175 -6 0 -17 -33 -26 -73 -15 -66 -38 -108 -64
-118 -5 -2 -19 -53 -31 -114 -16 -80 -29 -117 -46 -135 -15 -17 -27 -48 -34
-94 -13 -74 -41 -139 -66 -154 -10 -5 -19 -32 -25 -68 -10 -75 -17 -92 -50
-130 -18 -21 -29 -48 -34 -83 -8 -59 -37 -138 -65 -179 -10 -15 -24 -55 -31
-90 -10 -46 -21 -71 -42 -93 -24 -23 -32 -45 -43 -107 -19 -102 -29 -136 -54
-171 -12 -16 -28 -60 -37 -97 -16 -70 -30 -100 -65 -135 -10 -10 -19 -31 -19
-45 0 -45 -31 -138 -55 -164 -14 -16 -29 -54 -40 -105 -18 -85 -37 -129 -59
-142 -7 -4 -21 -43 -30 -85 -11 -51 -27 -88 -46 -113 -18 -23 -31 -53 -35 -85
-12 -84 -33 -151 -55 -175 -12 -13 -30 -57 -41 -100 -19 -76 -29 -98 -57 -122
-7 -6 -20 -51 -29 -100 -10 -61 -23 -102 -43 -133 -16 -25 -36 -76 -45 -115
-15 -68 -35 -110 -62 -130 -7 -5 -18 -37 -24 -70 -15 -85 -17 -93 -49 -128
-16 -19 -30 -50 -35 -77 -14 -86 -35 -154 -59 -189 -13 -20 -31 -64 -40 -99
-15 -61 -41 -112 -56 -112 -13 0 -21 -29 -36 -128 -14 -93 -30 -138 -58 -161
-9 -8 -16 -22 -16 -32 0 -36 -38 -129 -63 -151 -17 -17 -28 -42 -37 -93 -7
-38 -28 -99 -46 -135 -38 -75 -52 -146 -35 -179 l12 -21 658 0 c739 0 665 -8
734 77 28 33 36 54 41 104 8 68 39 161 61 179 7 6 19 43 25 83 16 100 29 138
56 168 15 16 28 46 34 85 14 78 28 111 55 132 17 14 24 33 30 82 18 154 72
260 143 280 26 8 457 10 1397 8 1250 -3 1362 -4 1391 -20 35 -19 52 -52 61
-117 3 -25 13 -55 23 -66 23 -27 46 -89 66 -175 8 -38 20 -70 25 -70 16 0 37
-54 57 -148 11 -52 27 -101 36 -111 22 -25 42 -86 57 -177 10 -63 18 -84 39
-104 24 -23 34 -50 55 -155 8 -40 58 -44 708 -50 557 -6 623 -5 668 10 36 12
49 22 49 36 0 10 -4 19 -10 19 -17 0 -42 62 -61 152 -13 67 -24 95 -42 112
-23 21 -36 63 -52 158 -3 21 -12 41 -19 45 -26 16 -46 60 -62 138 -12 57 -24
89 -44 111 -20 24 -31 52 -43 118 -11 62 -23 95 -41 117 -26 30 -56 114 -56
154 0 12 -11 35 -25 51 -29 33 -52 103 -62 183 -4 39 -13 61 -29 76 -28 26
-43 62 -55 134 -5 34 -17 64 -33 80 -33 37 -42 57 -57 131 -7 38 -22 76 -35
93 -25 30 -38 69 -55 167 -8 43 -21 77 -39 100 -17 22 -34 64 -45 110 -10 41
-25 84 -34 95 -28 33 -42 75 -57 164 -10 63 -19 87 -34 98 -26 18 -46 58 -55
108 -4 22 -23 65 -42 96 -25 41 -38 78 -47 138 -9 56 -20 89 -34 104 -25 27
-46 84 -56 149 -5 32 -18 60 -40 87 -26 30 -36 56 -46 108 -6 37 -20 79 -29
93 -34 48 -48 85 -60 160 -9 52 -20 83 -36 100 -29 30 -40 59 -54 134 -6 32
-20 69 -31 83 -22 29 -47 101 -60 181 -5 29 -16 60 -25 69 -29 29 -43 57 -59
122 -9 35 -27 76 -40 92 -15 18 -30 57 -41 106 -9 43 -31 108 -50 144 -18 36
-39 94 -46 130 -9 42 -22 75 -41 96 -24 29 -58 116 -58 149 0 7 -16 44 -35 81
-24 47 -38 91 -44 144 -9 67 -15 81 -44 110 -24 25 -37 50 -46 93 -7 32 -26
77 -43 100 -22 33 -33 64 -45 137 -9 56 -22 102 -33 114 -29 33 -40 62 -55
137 -8 43 -19 75 -29 80 -24 13 -41 54 -60 139 -10 46 -25 84 -36 94 -22 20
-45 88 -55 160 -5 34 -16 60 -36 82 -15 18 -33 51 -39 73 -5 22 -15 57 -20 79
-6 21 -17 45 -26 52 -23 19 -34 51 -54 163 -12 66 -23 102 -34 108 -23 13 -42
54 -57 123 -9 40 -22 69 -41 88 -19 19 -31 47 -40 88 -8 42 -19 64 -33 72 -14
9 -134 13 -405 15 -367 2 -386 1 -407 -17z m449 -2358 c50 -34 65 -60 84 -145
9 -40 32 -104 50 -143 22 -47 37 -98 45 -154 10 -70 18 -92 44 -127 23 -30 36
-62 45 -111 8 -39 23 -81 36 -99 25 -32 48 -112 60 -204 4 -37 13 -59 26 -68
24 -17 34 -43 54 -140 9 -44 25 -88 39 -107 22 -28 55 -127 55 -164 0 -8 15
-44 34 -80 21 -42 39 -99 50 -155 10 -55 23 -98 35 -110 28 -32 38 -55 54
-133 8 -40 24 -84 36 -99 26 -33 48 -104 57 -184 4 -37 14 -68 26 -82 42 -48
53 -81 53 -161 0 -74 -2 -80 -28 -103 l-28 -24 -873 2 -872 3 -27 27 c-22 22
-25 31 -18 55 5 15 14 70 21 122 14 112 33 179 59 212 10 13 24 56 31 94 14
74 39 133 63 153 8 7 18 34 22 60 11 81 36 158 60 186 15 18 25 45 29 86 9 74
28 130 59 173 15 20 29 59 37 106 9 57 19 80 41 103 19 20 30 45 35 76 15 109
36 189 59 224 14 21 33 72 42 115 12 53 25 86 45 108 22 26 31 51 44 126 16
95 31 136 57 158 8 6 18 37 22 68 10 81 31 142 58 172 15 16 29 50 37 91 16
76 47 115 83 105 12 -4 39 -18 59 -32z"/>
<path d="M58729 18744 l-35 -15 -2 -3542 c-2 -1948 0 -3604 4 -3680 l7 -137
29 -22 30 -21 2440 -1 c2278 -1 2441 0 2449 16 5 9 9 275 9 605 0 456 -3 593
-12 606 -12 16 -133 17 -1787 20 l-1774 2 -31 38 -31 39 0 811 c0 447 4 829 8
849 6 28 16 43 40 55 30 17 116 18 1494 15 l1461 -4 26 45 26 44 0 579 0 580
-33 12 c-25 9 -383 12 -1494 12 -804 0 -1469 3 -1478 6 -8 4 -23 21 -33 38
-16 28 -17 99 -20 859 -2 577 1 839 8 868 22 80 -138 74 1849 74 1755 0 1764
0 1772 20 9 23 12 1206 3 1229 -6 15 -230 16 -2448 15 -2132 0 -2446 -2 -2477
-15z"/>
<path d="M51568 8344 c-7 -14 -30 -35 -52 -46 -23 -11 -52 -32 -67 -47 -57
-59 -163 -151 -173 -151 -7 0 -33 -20 -58 -45 -26 -25 -53 -45 -60 -45 -8 0
-22 -15 -31 -34 -10 -23 -27 -38 -49 -45 -18 -6 -38 -21 -43 -33 -6 -13 -27
-31 -48 -41 -20 -11 -44 -32 -52 -48 -9 -16 -28 -35 -45 -44 -16 -8 -35 -24
-43 -35 -7 -11 -32 -33 -54 -49 l-40 -29 10 -50 c9 -44 15 -53 46 -67 20 -9
43 -29 53 -44 10 -18 28 -32 46 -36 17 -3 36 -13 42 -20 10 -12 15 -12 33 -1
12 8 37 17 55 21 22 4 37 16 47 36 9 16 32 37 53 48 20 11 42 28 49 39 12 20
84 62 107 62 8 0 24 16 36 35 13 20 33 38 48 41 15 4 47 26 72 51 25 24 59 57
76 74 34 33 96 69 118 69 8 0 25 14 37 31 12 17 37 38 56 45 18 8 39 25 44 38
6 13 27 32 47 42 19 11 37 24 39 30 2 7 -19 40 -47 74 -27 35 -50 70 -50 77 0
8 -15 20 -34 28 -19 8 -41 23 -48 33 -12 18 -84 62 -101 62 -4 0 -13 -12 -19
-26z"/>
<path d="M2610 7007 c-70 -24 -131 -35 -253 -46 -82 -8 -106 -14 -145 -39 -26
-17 -79 -39 -118 -50 -40 -11 -81 -29 -92 -40 -18 -18 -79 -42 -143 -56 -14
-3 -31 -17 -37 -30 -6 -14 -29 -35 -51 -48 -23 -13 -41 -29 -41 -35 0 -7 -17
-23 -37 -37 -51 -31 -125 -103 -148 -144 -11 -17 -27 -34 -36 -37 -10 -3 -24
-23 -33 -45 -8 -21 -29 -49 -46 -61 -16 -13 -30 -30 -30 -38 -1 -28 -40 -105
-63 -126 -13 -11 -31 -47 -41 -80 -11 -36 -30 -70 -47 -86 -25 -23 -30 -37
-40 -119 -6 -51 -22 -129 -36 -174 -14 -44 -30 -99 -36 -121 -6 -26 -11 -370
-14 -990 -4 -920 1 -1157 26 -1204 17 -32 59 -211 66 -284 4 -41 13 -73 22
-80 43 -35 54 -51 68 -100 9 -31 27 -65 44 -81 16 -16 32 -43 35 -60 4 -18 26
-58 50 -90 25 -31 47 -69 51 -84 4 -17 17 -32 38 -42 18 -9 38 -29 46 -47 8
-19 24 -34 38 -38 17 -4 30 -19 40 -45 12 -30 23 -41 45 -46 17 -3 47 -21 67
-39 20 -18 54 -41 76 -53 22 -11 52 -34 68 -51 15 -17 37 -31 50 -31 25 0 92
-33 122 -60 12 -11 49 -23 90 -30 89 -14 150 -32 206 -60 98 -50 717 -52 815
-2 47 24 130 46 228 62 55 9 77 18 108 45 24 20 56 36 80 40 26 5 51 19 74 41
19 19 53 43 77 53 24 10 50 30 59 43 9 14 31 29 49 34 21 6 43 23 57 44 13 19
34 41 48 48 13 7 31 26 39 42 8 16 29 37 45 45 17 9 36 31 44 50 8 19 25 40
38 46 15 6 30 28 41 58 9 27 30 62 46 77 16 16 38 50 49 75 11 25 31 52 44 61
18 12 27 29 32 60 13 83 39 173 57 199 25 35 40 104 26 118 -17 17 -351 15
-365 -2 -6 -7 -16 -34 -23 -60 -7 -28 -24 -60 -40 -77 -19 -19 -32 -46 -39
-78 -12 -65 -29 -100 -52 -108 -10 -3 -29 -27 -41 -52 -12 -26 -33 -52 -47
-59 -13 -7 -29 -27 -35 -45 -7 -21 -22 -39 -42 -48 -17 -8 -35 -28 -41 -43 -7
-19 -24 -33 -49 -43 -21 -9 -43 -25 -48 -37 -6 -12 -28 -31 -51 -42 -23 -11
-57 -34 -77 -52 -21 -18 -53 -35 -74 -38 -52 -9 -78 -20 -121 -55 -27 -21 -56
-32 -107 -41 -38 -6 -92 -20 -120 -31 -111 -44 -455 -44 -542 0 -21 11 -63 22
-93 26 -79 10 -120 25 -158 57 -18 16 -45 31 -60 35 -48 10 -77 24 -104 49
-14 13 -42 33 -63 44 -20 10 -54 37 -75 58 -22 21 -48 47 -60 58 -11 11 -32
33 -48 48 -15 16 -34 35 -42 42 -9 8 -22 31 -29 52 -8 21 -31 56 -51 79 -21
23 -41 55 -45 72 -3 17 -13 36 -21 43 -30 25 -55 92 -66 177 -8 62 -18 96 -34
117 -48 65 -49 79 -49 1160 0 1078 0 1082 49 1155 16 24 28 62 36 120 13 96
28 137 59 164 11 11 21 25 21 33 0 25 40 92 64 108 14 9 29 34 36 60 9 33 19
46 41 55 15 7 31 22 35 34 9 29 120 135 149 142 13 3 33 21 44 39 13 23 31 37
56 44 20 5 61 26 90 46 38 26 71 40 121 49 38 6 85 22 103 33 46 29 105 41
242 48 215 12 464 -18 500 -61 6 -8 21 -14 33 -14 49 0 138 -32 180 -64 25
-19 59 -37 76 -41 17 -4 42 -21 58 -41 14 -18 38 -36 52 -39 32 -7 227 -196
235 -228 3 -12 19 -30 36 -39 16 -10 34 -30 40 -45 6 -15 24 -41 40 -57 25
-25 59 -106 59 -143 0 -7 10 -22 23 -33 13 -11 34 -45 48 -75 13 -31 33 -58
44 -62 40 -15 295 -2 324 17 24 14 18 84 -13 139 -19 36 -30 72 -33 114 -6 81
-19 113 -64 164 -21 23 -41 53 -44 66 -4 14 -18 30 -31 36 -14 6 -33 29 -43
55 -11 24 -28 50 -38 57 -10 8 -26 25 -34 39 -29 45 -156 182 -186 200 -15 9
-42 31 -59 47 -16 17 -49 40 -72 52 -24 12 -47 33 -52 46 -6 15 -20 27 -37 30
-57 13 -115 38 -136 60 -13 14 -51 30 -97 41 -41 11 -86 28 -100 40 -35 29
-48 33 -170 49 -60 7 -147 26 -194 40 -77 23 -100 26 -213 23 -92 -2 -143 -8
-183 -21z"/>
<path d="M24305 7020 c-22 -4 -80 -16 -130 -28 -49 -11 -126 -23 -170 -26
-117 -10 -180 -24 -200 -46 -18 -20 -82 -44 -146 -54 -20 -4 -56 -20 -79 -37
-23 -17 -59 -37 -80 -44 -43 -15 -134 -82 -195 -143 -22 -23 -52 -44 -67 -47
-17 -5 -28 -14 -28 -24 0 -21 -36 -56 -66 -65 -14 -4 -24 -18 -28 -36 -6 -35
-52 -110 -66 -110 -6 0 -21 -24 -34 -54 -13 -29 -33 -60 -44 -67 -11 -8 -29
-44 -41 -84 -12 -39 -32 -91 -46 -116 -17 -31 -33 -93 -49 -188 -14 -82 -34
-159 -46 -183 -17 -33 -22 -70 -30 -201 -14 -220 -6 -1978 8 -2032 6 -22 20
-66 31 -97 12 -31 30 -111 41 -178 15 -94 25 -128 43 -150 21 -25 35 -63 51
-140 3 -14 23 -44 45 -68 24 -25 43 -57 47 -78 4 -22 16 -41 32 -52 13 -9 31
-31 39 -49 14 -36 201 -233 220 -233 6 0 23 -14 37 -30 14 -17 44 -39 68 -49
24 -10 56 -30 71 -45 15 -14 51 -34 80 -43 28 -9 63 -29 77 -43 21 -22 42 -30
128 -44 112 -19 188 -41 212 -62 50 -42 839 -43 904 -1 33 22 118 45 226 63
76 12 102 21 131 44 20 15 54 33 76 39 23 6 63 29 89 51 26 21 60 42 76 45 15
4 37 20 49 37 12 17 37 37 55 44 19 8 41 28 49 44 9 17 26 36 39 41 12 6 30
25 40 44 10 18 29 38 42 44 14 6 33 29 43 54 10 24 30 51 45 60 14 10 26 24
26 33 0 25 41 98 71 126 17 15 29 37 29 51 0 40 29 111 53 132 20 18 25 38 41
170 18 150 28 198 62 310 18 57 19 111 18 1005 0 655 -4 959 -11 990 -27 110
-54 252 -70 364 -9 67 -22 128 -28 136 -22 27 -52 94 -59 133 -5 24 -21 53
-47 80 -22 24 -42 56 -45 76 -4 18 -18 43 -31 55 -24 20 -73 112 -73 135 0 6
-13 17 -28 25 -16 8 -46 32 -68 53 -87 83 -131 121 -171 146 -23 15 -47 36
-53 47 -6 12 -29 24 -55 31 -25 6 -66 27 -92 45 -27 19 -55 34 -63 34 -32 0
-146 42 -165 60 -22 21 -82 34 -198 45 -37 4 -92 13 -122 20 -30 8 -69 17 -86
20 -18 3 -36 8 -40 11 -13 8 -301 11 -344 4z m355 -370 c126 -9 209 -30 231
-56 6 -8 26 -14 43 -14 48 0 128 -26 167 -55 19 -14 54 -34 79 -45 26 -12 52
-33 62 -50 9 -17 25 -30 34 -30 29 0 98 -48 124 -86 14 -20 44 -56 68 -80 23
-24 42 -50 42 -58 0 -9 15 -30 34 -49 19 -19 41 -56 51 -88 10 -30 26 -63 36
-74 26 -29 37 -64 53 -171 10 -69 20 -102 35 -118 45 -48 46 -70 46 -1161 0
-1101 0 -1097 -49 -1156 -18 -21 -25 -45 -30 -101 -8 -90 -31 -164 -62 -201
-13 -16 -24 -36 -24 -45 0 -22 -57 -112 -70 -112 -6 0 -19 -20 -30 -45 -12
-28 -29 -50 -45 -57 -15 -6 -33 -27 -40 -45 -9 -20 -27 -39 -47 -49 -19 -9
-38 -26 -44 -37 -5 -12 -29 -32 -54 -45 -24 -13 -50 -32 -57 -42 -17 -24 -62
-46 -113 -55 -23 -4 -56 -19 -73 -35 -37 -31 -79 -46 -157 -56 -30 -4 -82 -18
-115 -32 -56 -23 -73 -25 -255 -28 -211 -3 -291 4 -360 35 -25 10 -74 22 -110
26 -78 9 -137 31 -150 56 -9 17 -30 25 -112 43 -15 3 -48 24 -73 46 -25 22
-51 40 -57 40 -15 0 -58 40 -58 54 0 6 -15 18 -33 26 -18 8 -39 29 -47 47 -8
18 -28 38 -43 44 -17 7 -36 27 -45 48 -10 19 -29 47 -45 61 -15 14 -35 48 -45
76 -10 28 -29 65 -44 82 -20 24 -30 54 -43 126 -10 57 -25 104 -35 116 -53 61
-60 194 -60 1190 0 1064 8 1226 60 1263 12 8 23 40 34 97 11 61 24 97 46 128
16 23 35 63 41 87 11 42 69 123 155 215 13 14 34 39 48 55 13 17 46 41 72 55
27 13 63 39 80 57 17 18 41 33 53 33 11 0 37 15 57 34 35 33 121 66 175 66 13
0 38 8 54 19 17 10 48 24 69 31 78 25 376 36 576 20z"/>
<path d="M41265 7000 c-60 -15 -164 -33 -230 -39 -105 -10 -125 -15 -160 -40
-23 -16 -73 -36 -115 -46 -48 -12 -86 -28 -106 -45 -17 -15 -59 -35 -93 -45
-49 -15 -65 -25 -81 -52 -10 -18 -30 -35 -45 -39 -14 -3 -32 -19 -41 -35 -8
-16 -32 -38 -53 -48 -21 -11 -41 -29 -44 -40 -3 -12 -19 -29 -36 -38 -16 -10
-37 -34 -46 -53 -9 -19 -28 -42 -43 -51 -20 -12 -32 -32 -46 -77 -10 -34 -29
-73 -43 -88 -13 -15 -33 -55 -44 -90 -11 -35 -30 -76 -43 -91 -24 -29 -32 -54
-41 -138 -12 -106 -32 -170 -64 -209 -14 -16 -16 -149 -16 -1261 l0 -1244 28
-29 c24 -25 31 -46 48 -143 13 -81 24 -118 37 -129 23 -20 49 -75 57 -125 4
-22 18 -51 31 -65 25 -28 63 -106 64 -132 0 -9 13 -21 30 -27 17 -5 39 -25 51
-45 11 -19 31 -42 45 -51 14 -9 30 -29 35 -44 7 -20 22 -33 49 -44 24 -9 44
-26 52 -41 6 -15 23 -29 37 -33 44 -10 100 -42 111 -63 6 -12 32 -26 64 -35
30 -9 72 -29 95 -45 28 -21 60 -33 108 -40 109 -16 164 -30 228 -55 83 -32
121 -36 440 -40 360 -5 522 6 590 39 28 13 106 34 175 46 92 17 132 29 152 45
27 23 87 48 140 59 15 3 29 14 32 24 4 10 28 30 55 44 27 15 66 43 87 63 22
19 52 39 68 43 21 6 31 17 41 46 7 21 22 48 33 59 10 12 30 35 43 52 13 16 41
47 61 68 21 22 42 56 49 76 6 20 24 47 39 61 19 19 30 43 39 90 16 84 29 119
57 150 17 19 26 46 34 100 15 112 30 170 59 225 l25 49 4 542 c3 381 1 547 -7
561 -11 21 -13 21 -807 20 l-796 0 -9 -24 c-10 -27 -13 -272 -3 -297 6 -14 64
-16 563 -16 l556 0 37 -25 c26 -17 40 -37 47 -63 14 -49 15 -501 2 -572 -5
-30 -16 -74 -25 -97 -8 -24 -20 -80 -26 -125 -16 -116 -26 -150 -59 -191 -15
-20 -31 -55 -35 -78 -8 -48 -29 -94 -61 -129 -12 -14 -25 -37 -28 -51 -8 -31
-191 -220 -229 -237 -16 -6 -28 -16 -28 -22 0 -14 -66 -45 -127 -60 -29 -6
-53 -16 -53 -21 0 -19 -66 -48 -134 -59 -39 -6 -97 -20 -130 -31 -32 -11 -95
-25 -139 -31 -112 -15 -414 -4 -492 17 -71 19 -157 39 -239 54 -39 7 -69 19
-85 35 -16 15 -53 32 -96 42 -48 12 -79 26 -99 46 -15 16 -41 35 -57 43 -16 9
-43 30 -61 48 -18 18 -48 43 -66 56 -18 13 -38 33 -43 45 -12 29 -29 52 -66
93 -17 19 -36 54 -42 78 -7 30 -18 46 -32 50 -25 8 -43 48 -60 135 -7 36 -23
85 -35 110 -42 86 -45 146 -51 985 -7 1144 6 1465 61 1549 7 12 19 53 25 91
18 104 32 144 57 164 13 10 28 39 35 65 7 28 25 62 43 81 18 19 43 54 55 78
13 25 34 50 47 56 13 6 30 22 36 37 7 14 30 35 52 46 22 11 49 31 59 45 20 25
86 63 111 63 8 0 23 11 33 25 21 29 83 54 158 62 48 6 76 16 137 49 40 22 293
37 493 31 174 -6 272 -25 320 -61 11 -9 29 -16 41 -16 47 0 128 -33 153 -61
14 -16 33 -29 42 -29 9 0 45 -23 80 -51 35 -28 76 -57 90 -65 15 -7 37 -30 49
-51 12 -21 30 -43 40 -50 10 -7 35 -39 56 -70 21 -32 45 -63 55 -70 9 -7 24
-36 34 -65 9 -29 27 -63 40 -76 28 -28 40 -58 55 -142 8 -44 18 -69 32 -78 11
-8 28 -34 39 -58 10 -25 24 -46 31 -48 7 -3 90 -7 184 -10 l171 -6 11 25 c17
38 -4 170 -34 215 -31 48 -40 73 -54 163 -11 66 -17 81 -40 97 -17 12 -32 36
-40 65 -7 26 -33 72 -57 102 -23 31 -43 65 -43 75 0 11 -11 23 -25 28 -16 6
-32 25 -41 47 -18 41 -103 130 -148 153 -15 8 -32 25 -37 37 -4 12 -25 31 -47
42 -21 11 -43 30 -49 43 -8 17 -28 29 -73 42 -35 11 -77 32 -95 47 -18 16 -37
29 -43 29 -43 0 -118 26 -147 51 -36 32 -72 41 -243 59 -93 10 -148 24 -193
49 -9 5 -101 9 -205 9 -173 0 -198 -2 -299 -28z"/>
<path d="M50778 7019 c-30 -17 -187 -46 -307 -59 -110 -11 -151 -21 -151 -39
0 -12 -64 -36 -134 -51 -37 -8 -74 -23 -96 -41 -19 -16 -58 -36 -85 -45 -28
-10 -56 -25 -62 -35 -7 -9 -36 -33 -65 -52 -29 -20 -64 -48 -77 -62 -13 -14
-37 -29 -53 -32 -22 -4 -33 -15 -45 -45 -9 -22 -27 -45 -43 -53 -15 -8 -31
-26 -34 -39 -3 -14 -27 -49 -52 -77 -24 -28 -52 -68 -60 -88 -8 -21 -26 -48
-40 -60 -13 -11 -24 -29 -24 -39 0 -33 -36 -131 -63 -170 -16 -24 -29 -63 -37
-112 -11 -71 -27 -114 -68 -185 -16 -28 -17 -113 -20 -1149 -3 -1171 0 -1275
38 -1323 22 -29 45 -101 56 -176 4 -28 16 -60 30 -76 27 -32 40 -64 55 -129 5
-24 25 -63 44 -87 19 -23 40 -57 47 -76 6 -19 26 -47 45 -62 18 -16 33 -35 33
-42 0 -7 16 -28 36 -47 19 -18 41 -44 49 -58 22 -42 74 -90 123 -115 26 -13
53 -33 60 -44 6 -12 29 -28 50 -36 20 -9 51 -29 67 -44 17 -16 57 -38 90 -50
35 -12 67 -31 78 -46 11 -14 29 -25 41 -25 53 0 234 -44 272 -65 35 -20 64
-26 185 -34 302 -22 689 -8 750 28 45 26 124 47 229 61 71 9 91 16 119 40 18
16 56 36 84 46 29 9 68 31 87 49 19 18 52 38 72 44 22 7 40 21 43 32 4 11 26
29 49 39 23 10 51 31 61 46 10 16 27 35 37 42 10 8 30 31 43 52 13 21 34 41
45 45 11 4 30 26 41 51 13 27 30 46 43 50 17 4 26 19 40 74 12 49 26 78 46 96
19 19 32 45 41 86 8 41 23 73 46 100 18 22 33 45 33 50 0 48 36 240 58 308
l27 85 0 1045 0 1045 -23 75 c-38 123 -40 131 -52 230 -9 76 -16 100 -34 120
-32 34 -44 59 -57 121 -7 34 -20 60 -35 71 -20 17 -43 70 -58 139 -3 14 -17
31 -31 37 -14 7 -29 22 -34 34 -5 13 -32 49 -60 81 -28 32 -58 72 -66 88 -9
16 -22 29 -30 29 -8 0 -40 23 -71 50 -30 28 -66 55 -80 60 -14 6 -33 23 -42
40 -12 21 -29 33 -57 41 -61 15 -95 30 -124 54 -14 12 -59 30 -99 40 -42 10
-86 28 -102 42 -30 25 -56 31 -255 57 -60 8 -139 24 -174 36 -55 17 -89 20
-221 19 -85 0 -163 -5 -172 -10z m507 -380 c33 -6 76 -21 95 -33 19 -13 57
-26 84 -29 77 -11 126 -29 155 -57 14 -15 44 -33 66 -40 22 -6 54 -27 72 -46
18 -19 38 -34 46 -34 23 0 208 -201 214 -233 3 -15 18 -36 33 -47 16 -11 36
-42 49 -76 11 -31 32 -69 45 -85 23 -27 56 -140 56 -190 0 -12 14 -63 31 -113
44 -126 46 -179 48 -1091 1 -916 -5 -1065 -47 -1181 -16 -44 -32 -106 -37
-138 -10 -84 -30 -145 -58 -175 -13 -14 -27 -38 -30 -52 -4 -14 -21 -43 -38
-65 -17 -21 -42 -63 -55 -92 -15 -33 -35 -59 -54 -70 -16 -9 -32 -27 -35 -40
-3 -14 -22 -31 -50 -44 -25 -12 -45 -27 -45 -33 0 -16 -40 -50 -77 -64 -17 -7
-34 -19 -37 -26 -7 -18 -71 -51 -117 -59 -20 -3 -45 -16 -55 -27 -29 -32 -64
-47 -140 -59 -38 -6 -94 -20 -124 -31 -80 -28 -193 -38 -380 -34 -142 3 -176
7 -240 28 -41 13 -95 28 -120 31 -75 12 -136 35 -158 61 -12 14 -32 25 -44 26
-35 0 -108 33 -136 60 -14 13 -39 28 -56 34 -17 5 -40 24 -51 41 -11 17 -33
37 -48 44 -16 7 -36 28 -45 46 -8 19 -21 34 -28 34 -15 0 -64 57 -64 74 0 7
-13 22 -28 33 -20 15 -35 42 -50 88 -14 40 -33 75 -48 89 -23 19 -28 33 -35
107 -9 89 -16 121 -48 211 -40 112 -45 250 -46 1253 0 855 2 958 17 1034 9 47
26 97 36 111 11 14 25 53 32 86 14 68 31 104 64 137 12 13 26 41 30 62 8 39
90 159 159 230 17 19 41 44 52 55 40 43 169 130 191 130 13 0 39 15 58 34 35
35 71 49 161 62 28 3 57 13 65 20 30 26 106 46 205 54 125 11 481 4 560 -11z"/>
<path d="M55195 7019 c-36 -16 -238 -50 -348 -59 -95 -8 -115 -13 -155 -39
-28 -17 -79 -36 -127 -46 -50 -10 -96 -27 -121 -45 -23 -15 -68 -35 -100 -45
-41 -11 -72 -29 -99 -55 -22 -21 -52 -42 -67 -45 -17 -4 -28 -16 -33 -32 -4
-17 -20 -31 -50 -44 -25 -11 -45 -26 -45 -33 0 -15 -37 -50 -62 -59 -9 -3 -22
-24 -28 -46 -6 -22 -22 -49 -35 -59 -14 -11 -36 -44 -50 -74 -14 -30 -36 -65
-50 -78 -17 -16 -29 -45 -41 -99 -9 -42 -30 -101 -48 -131 l-31 -55 0 -361 c0
-321 2 -364 16 -380 25 -28 56 -95 64 -136 4 -21 23 -54 46 -79 22 -24 44 -57
50 -74 7 -17 27 -41 46 -54 19 -12 39 -35 44 -51 7 -18 21 -32 40 -39 16 -5
37 -23 46 -40 11 -18 36 -38 68 -51 27 -13 66 -35 85 -50 19 -15 62 -35 94
-45 33 -11 74 -32 92 -47 17 -15 41 -28 52 -28 52 0 196 -33 258 -58 47 -20
102 -33 174 -41 122 -14 208 -34 257 -61 20 -11 67 -21 111 -25 122 -10 192
-25 242 -50 35 -18 76 -26 171 -35 138 -13 224 -33 254 -59 11 -10 49 -24 85
-32 46 -10 75 -23 100 -45 22 -19 56 -36 90 -44 40 -10 64 -22 86 -47 17 -18
36 -33 43 -33 20 0 120 -106 136 -144 8 -19 23 -37 34 -41 21 -6 34 -35 52
-110 7 -27 24 -65 38 -84 25 -33 26 -41 29 -185 4 -186 -2 -245 -33 -290 -13
-19 -29 -63 -36 -98 -14 -72 -28 -105 -58 -132 -11 -10 -25 -35 -32 -55 -14
-43 -36 -70 -66 -82 -12 -4 -25 -19 -29 -32 -3 -16 -22 -33 -50 -47 -24 -13
-44 -28 -44 -35 0 -19 -42 -52 -83 -65 -21 -7 -53 -25 -72 -41 -23 -20 -54
-33 -106 -44 -40 -9 -83 -24 -94 -34 -35 -32 -60 -40 -176 -56 -63 -8 -134
-22 -159 -31 -134 -47 -595 -44 -755 5 -36 11 -110 25 -165 31 -96 9 -134 22
-190 61 -14 9 -54 20 -89 24 -65 6 -127 31 -150 58 -6 9 -35 21 -63 27 -32 8
-65 25 -88 46 -21 19 -57 41 -81 49 -48 17 -79 41 -79 61 0 7 -16 18 -36 23
-38 10 -104 51 -104 63 0 4 -13 14 -29 22 -27 15 -30 14 -55 -11 -14 -14 -26
-29 -26 -34 0 -4 -9 -10 -19 -14 -11 -3 -27 -22 -36 -41 -9 -20 -30 -43 -46
-53 -21 -12 -33 -30 -45 -70 -14 -50 -14 -54 3 -74 36 -42 69 -67 114 -88 25
-12 54 -34 63 -50 10 -16 26 -29 37 -29 24 0 111 -43 128 -64 7 -8 37 -22 66
-31 29 -8 72 -31 95 -50 23 -19 52 -35 63 -35 43 0 128 -29 155 -52 24 -20 49
-26 141 -37 128 -15 257 -43 303 -67 45 -23 263 -33 623 -28 291 3 426 14 450
34 21 18 106 38 230 56 100 14 124 21 144 41 13 13 56 33 95 45 41 12 78 30
88 43 9 12 45 32 79 46 34 13 68 34 77 48 9 13 35 32 59 42 25 11 48 29 55 44
6 14 26 34 45 45 18 11 33 27 33 38 0 20 34 55 63 65 9 4 17 15 17 26 0 11 20
42 43 69 28 31 48 66 55 95 7 25 25 65 41 89 25 37 32 65 51 193 12 82 24 153
26 157 3 4 7 20 9 35 2 16 7 39 10 53 12 50 7 196 -9 260 -13 56 -27 140 -53
317 -3 23 -12 44 -19 47 -8 3 -29 38 -48 78 -21 45 -46 82 -66 98 -18 13 -37
37 -42 52 -6 15 -22 34 -36 40 -15 7 -36 27 -47 45 -13 20 -39 39 -73 53 -29
12 -63 35 -75 51 -12 17 -38 34 -60 41 -22 7 -48 24 -59 39 -16 22 -34 30 -87
39 -82 15 -146 35 -189 60 -18 11 -69 27 -115 36 -100 20 -126 30 -153 55 -16
15 -45 21 -135 30 -115 10 -249 39 -298 63 -14 7 -78 19 -141 26 -136 15 -211
33 -248 60 -19 14 -55 23 -117 30 -108 12 -149 25 -192 56 -17 13 -42 24 -55
24 -48 0 -125 27 -164 57 -21 17 -56 36 -77 43 -25 8 -45 23 -58 43 -11 18
-33 36 -51 42 -20 7 -39 23 -48 41 -8 16 -27 38 -43 49 -17 11 -35 37 -42 58
-7 22 -22 45 -33 53 -44 31 -55 101 -55 351 1 246 12 324 54 368 10 12 22 36
25 55 9 48 37 101 67 127 14 12 33 37 42 56 10 22 28 39 44 45 16 6 33 22 40
40 8 20 27 36 54 48 23 10 48 24 55 31 35 33 80 62 107 69 17 3 41 17 55 29
29 26 104 52 175 61 28 3 68 14 91 24 92 42 157 51 387 54 298 4 430 -6 510
-40 34 -14 88 -30 119 -34 100 -14 156 -31 181 -56 14 -14 51 -31 83 -40 67
-17 104 -38 104 -58 0 -9 26 -20 75 -31 53 -11 80 -23 93 -39 10 -13 45 -38
78 -55 33 -17 70 -42 82 -56 30 -34 39 -32 52 13 5 21 21 49 35 62 14 13 39
45 56 71 16 26 36 50 44 53 8 3 21 16 30 29 13 21 14 32 4 71 -8 32 -17 46
-28 46 -38 0 -117 33 -141 59 -14 15 -45 35 -70 44 -25 9 -63 33 -83 52 -20
19 -46 35 -56 35 -35 0 -149 40 -154 54 -3 8 -32 19 -64 26 -126 24 -154 33
-188 60 -28 23 -50 30 -103 35 -191 17 -268 28 -324 47 -51 16 -94 20 -233 23
-93 2 -179 -1 -190 -6z"/>
<path d="M64905 7004 c-93 -24 -181 -40 -277 -49 -39 -4 -70 -15 -101 -36 -24
-16 -75 -37 -113 -46 -47 -11 -77 -25 -94 -43 -15 -16 -51 -34 -88 -45 -54
-16 -65 -24 -77 -51 -9 -22 -24 -35 -49 -44 -19 -6 -38 -20 -41 -31 -4 -10
-21 -26 -38 -35 -33 -17 -157 -136 -157 -152 0 -5 -12 -15 -27 -23 -14 -8 -32
-29 -40 -47 -8 -18 -27 -41 -44 -50 -20 -12 -32 -29 -40 -57 -5 -22 -13 -48
-15 -58 -3 -10 -19 -33 -35 -51 -16 -19 -38 -63 -49 -99 -12 -40 -30 -73 -44
-84 -18 -15 -26 -36 -35 -93 -16 -100 -39 -181 -58 -201 -31 -35 -38 -256 -38
-1189 1 -987 5 -1102 49 -1206 14 -34 33 -104 42 -155 14 -79 22 -100 49 -130
20 -23 37 -56 45 -90 8 -34 22 -63 39 -79 15 -14 35 -49 44 -78 11 -33 32 -67
57 -92 22 -22 42 -50 45 -62 3 -13 19 -31 36 -40 16 -10 36 -33 44 -51 7 -18
25 -39 40 -45 14 -7 33 -28 41 -47 10 -24 23 -37 42 -41 15 -4 41 -19 57 -35
17 -15 53 -40 80 -54 28 -15 63 -40 78 -56 15 -16 38 -29 50 -29 27 0 96 -35
117 -59 10 -11 43 -23 85 -30 96 -17 174 -40 212 -62 79 -48 781 -51 833 -3
24 20 94 43 187 59 60 11 93 22 123 44 23 16 64 37 91 46 27 9 54 25 59 36 11
20 99 69 125 69 8 0 15 6 15 14 0 19 48 56 72 56 11 0 27 15 40 35 11 20 34
43 50 51 16 8 34 26 40 39 6 14 26 34 44 44 18 11 40 36 48 55 8 19 25 42 39
51 14 8 27 28 30 43 3 15 24 49 46 74 23 26 48 66 57 90 8 24 25 53 38 64 12
12 28 44 35 70 28 115 44 160 63 181 14 15 21 37 22 75 l1 53 -185 0 -185 0
-9 -30 c-18 -61 -40 -107 -57 -119 -10 -6 -23 -34 -30 -61 -15 -63 -34 -100
-59 -118 -11 -7 -26 -30 -35 -50 -8 -20 -28 -46 -43 -57 -15 -11 -36 -36 -47
-56 -10 -19 -29 -37 -42 -40 -14 -4 -32 -22 -43 -44 -11 -21 -31 -42 -48 -49
-16 -7 -34 -23 -41 -37 -6 -15 -30 -33 -58 -45 -26 -11 -52 -28 -59 -38 -15
-21 -75 -47 -127 -56 -20 -3 -47 -17 -60 -30 -28 -30 -62 -43 -161 -61 -43 -7
-84 -18 -91 -24 -25 -21 -82 -30 -210 -34 -147 -5 -263 6 -315 29 -19 8 -75
24 -123 34 -48 11 -98 26 -110 35 -12 9 -32 23 -44 32 -12 9 -41 20 -64 25
-71 16 -182 104 -345 272 -37 38 -74 100 -74 125 0 5 -15 21 -33 35 -21 16
-38 41 -46 66 -6 23 -16 41 -21 41 -19 0 -60 107 -66 175 -3 39 -13 81 -21 93
-8 13 -24 49 -36 80 -21 57 -22 63 -25 1071 -2 690 0 1037 8 1085 6 39 22 94
36 123 14 29 29 79 35 113 12 78 36 138 60 151 11 5 19 15 19 21 0 25 54 128
70 133 10 3 25 25 34 49 12 30 26 48 44 55 16 7 33 25 39 41 6 16 25 38 43 49
18 10 41 33 51 50 11 19 30 34 47 37 15 3 36 19 47 37 12 18 36 36 58 43 22 8
54 27 73 43 34 30 72 44 153 57 25 4 60 17 78 30 58 39 130 48 373 48 237 0
311 -11 370 -53 14 -10 47 -21 73 -24 54 -8 131 -39 160 -65 11 -9 38 -24 60
-33 24 -9 51 -29 62 -47 12 -17 35 -34 55 -41 19 -6 58 -33 85 -61 28 -28 66
-67 85 -86 19 -19 38 -38 42 -42 74 -79 98 -109 98 -119 0 -7 16 -30 35 -52
24 -26 40 -58 52 -105 12 -43 24 -68 35 -72 9 -2 29 -32 44 -64 27 -59 28 -59
83 -71 53 -11 285 -8 296 3 3 3 6 25 7 50 2 32 -4 53 -21 77 -26 36 -61 141
-61 184 0 15 -9 35 -21 45 -24 19 -69 107 -69 134 0 9 -13 25 -30 34 -16 10
-36 35 -44 55 -9 21 -25 43 -36 49 -11 6 -35 34 -54 63 -34 53 -141 166 -190
202 -16 11 -42 33 -58 48 -16 16 -41 32 -54 38 -14 5 -33 22 -42 39 -9 17 -28
33 -42 36 -40 9 -102 37 -130 60 -14 11 -56 29 -93 38 -37 10 -84 29 -104 43
-36 24 -70 33 -220 53 -45 6 -113 21 -151 34 -98 34 -298 34 -427 0z"/>
<path d="M69160 7019 c-45 -19 -194 -47 -304 -58 -93 -9 -116 -15 -155 -40
-25 -16 -80 -39 -121 -50 -41 -12 -80 -28 -86 -36 -13 -17 -112 -65 -135 -65
-9 0 -24 -11 -33 -25 -9 -13 -31 -32 -48 -41 -18 -9 -52 -35 -75 -58 -23 -23
-50 -48 -58 -56 -85 -81 -175 -185 -175 -202 0 -11 -15 -35 -34 -53 -23 -21
-40 -51 -51 -87 -11 -38 -26 -64 -50 -86 -24 -21 -35 -39 -35 -59 0 -54 -26
-130 -62 -184 -17 -25 -36 -173 -65 -504 -13 -145 -8 -1689 6 -1845 27 -314
44 -434 62 -455 22 -25 45 -88 54 -150 5 -31 19 -59 41 -86 18 -22 38 -58 44
-80 6 -21 21 -49 34 -61 29 -27 66 -96 66 -120 0 -10 16 -26 39 -37 24 -13 41
-30 45 -45 4 -15 20 -33 37 -41 17 -9 35 -29 41 -47 8 -21 23 -35 54 -48 23
-10 47 -28 53 -39 6 -11 38 -32 71 -47 34 -15 70 -39 80 -54 13 -18 33 -30 57
-35 39 -7 123 -51 123 -65 0 -4 21 -11 48 -15 104 -15 193 -37 244 -60 67 -30
252 -47 503 -44 272 3 380 14 449 45 34 15 111 36 180 47 99 18 124 25 139 44
11 14 46 31 87 44 48 14 74 28 85 45 9 14 36 34 61 45 25 10 62 35 82 55 20
19 49 40 64 46 15 5 36 25 47 44 11 19 32 39 46 46 13 6 27 19 30 30 4 10 30
47 60 83 29 36 57 80 60 96 4 19 18 37 35 47 19 11 31 28 35 50 9 47 43 125
62 139 10 8 24 56 38 131 13 66 34 141 48 168 46 93 52 247 52 1334 -1 1010
-6 1121 -54 1221 -20 43 -36 98 -47 169 -10 68 -22 112 -34 125 -25 29 -60
101 -60 125 0 12 -13 33 -29 48 -16 15 -41 50 -55 78 -14 29 -37 59 -51 68
-13 9 -30 34 -36 56 -9 28 -22 46 -47 60 -19 11 -36 29 -39 40 -3 12 -24 28
-49 39 -29 13 -45 27 -49 44 -4 16 -16 28 -33 32 -14 3 -42 23 -61 44 -25 26
-54 43 -93 55 -34 10 -65 27 -76 41 -13 17 -40 29 -88 41 -67 17 -103 32 -154
66 -15 10 -65 21 -130 28 -129 13 -206 28 -245 49 -23 12 -73 16 -225 18 -118
2 -205 -1 -220 -8z m515 -379 c33 -7 78 -21 100 -32 22 -12 78 -29 125 -40 63
-13 92 -25 115 -46 16 -16 45 -35 63 -42 18 -7 47 -26 64 -42 18 -16 49 -38
71 -49 21 -11 47 -35 58 -54 11 -19 29 -37 40 -40 10 -4 27 -21 36 -38 9 -18
35 -50 58 -72 26 -24 47 -55 53 -78 6 -21 24 -53 40 -72 23 -26 33 -50 42
-107 6 -40 20 -84 29 -98 43 -60 52 -93 66 -237 9 -81 20 -175 25 -208 7 -39
9 -354 7 -895 -3 -788 -4 -845 -25 -1010 -24 -194 -35 -235 -62 -250 -12 -6
-23 -30 -31 -67 -23 -114 -30 -132 -64 -173 -19 -23 -35 -51 -35 -62 0 -11
-15 -34 -34 -52 -18 -17 -38 -39 -43 -50 -22 -41 -180 -190 -221 -208 -23 -10
-49 -30 -58 -43 -17 -25 -49 -41 -108 -51 -21 -4 -53 -20 -71 -35 -20 -18 -53
-33 -86 -40 -83 -16 -169 -37 -229 -55 -43 -13 -100 -17 -255 -18 -192 -1
-204 0 -285 26 -47 15 -121 34 -164 42 -56 11 -87 22 -105 40 -14 13 -58 34
-97 45 -39 11 -79 30 -89 41 -10 11 -43 34 -72 51 -29 17 -58 39 -63 50 -6 11
-29 31 -51 45 -22 13 -44 36 -49 49 -5 13 -20 31 -34 40 -25 17 -76 94 -76
115 0 7 -12 21 -26 33 -31 24 -49 64 -59 129 -5 33 -14 52 -30 62 -27 18 -41
70 -54 202 -6 60 -19 119 -31 148 -35 77 -41 286 -37 1166 4 818 6 870 41 910
8 8 19 62 25 120 15 131 25 168 56 214 14 21 29 56 35 79 12 54 37 104 57 116
9 4 25 28 37 52 12 24 34 50 50 59 17 9 33 28 37 43 8 31 113 137 135 137 8 0
31 17 52 39 20 21 53 44 72 52 19 7 53 27 76 44 27 21 64 36 105 45 35 7 69
16 74 21 28 21 151 52 235 59 128 10 490 4 565 -10z"/>
<path d="M5475 6948 c-7 -17 -1 -4835 5 -4841 3 -3 704 -7 1558 -9 l1553 -3
10 40 c12 42 8 273 -5 293 -5 9 -332 12 -1318 12 -1196 0 -1313 1 -1345 16
-72 35 -68 -25 -71 899 -2 590 0 841 8 868 12 40 60 93 98 108 13 5 497 9
1103 9 949 0 1084 2 1109 15 l30 16 0 134 0 134 -31 16 c-27 14 -144 16 -1104
15 -737 0 -1082 3 -1102 11 -43 16 -92 69 -104 112 -16 61 -11 1683 6 1724 10
24 29 39 76 63 l62 31 1288 -7 1288 -7 12 29 c13 32 13 44 2 214 l-8 115
-1558 3 c-1241 2 -1559 0 -1562 -10z"/>
<path d="M9722 6952 c-18 -12 -18 -4793 0 -4822 12 -18 24 -20 157 -20 80 0
161 5 182 12 l39 11 0 1927 c0 1254 4 1946 10 1980 17 88 59 116 110 73 17
-14 30 -33 30 -43 0 -10 14 -31 31 -47 32 -30 69 -92 69 -117 0 -8 18 -33 40
-55 22 -22 40 -46 40 -55 0 -8 18 -33 40 -55 26 -26 44 -55 52 -86 9 -33 21
-51 40 -63 15 -9 33 -31 39 -49 5 -18 30 -57 55 -86 24 -30 47 -68 50 -84 4
-19 15 -35 29 -41 20 -9 65 -100 65 -132 0 -5 14 -19 30 -32 17 -12 39 -41 50
-64 12 -23 28 -45 36 -48 8 -3 28 -34 44 -68 15 -35 42 -76 59 -92 16 -16 33
-41 36 -56 3 -15 19 -39 35 -54 16 -14 36 -42 44 -61 9 -20 31 -55 50 -78 19
-23 39 -60 45 -83 7 -26 19 -44 34 -51 12 -6 35 -35 50 -66 16 -30 39 -65 52
-77 14 -13 32 -45 41 -72 8 -26 24 -53 34 -58 21 -11 60 -87 60 -118 0 -13 10
-26 27 -34 15 -7 39 -33 52 -58 14 -25 35 -53 47 -62 11 -10 32 -42 45 -72 14
-32 33 -59 47 -65 13 -6 32 -32 44 -59 11 -26 27 -51 34 -55 19 -11 64 -101
64 -126 0 -12 13 -27 30 -38 17 -10 34 -29 37 -42 3 -13 25 -46 49 -72 27 -31
48 -66 55 -94 7 -28 20 -50 36 -60 13 -9 33 -35 44 -58 10 -23 37 -64 59 -92
22 -27 40 -58 40 -68 0 -9 12 -27 26 -40 15 -12 38 -47 51 -77 14 -30 37 -68
53 -85 16 -16 36 -46 44 -66 8 -20 26 -43 40 -52 16 -11 32 -39 46 -82 17 -50
28 -69 50 -80 17 -9 33 -28 39 -48 7 -19 22 -43 34 -54 13 -11 36 -49 52 -85
16 -37 37 -68 49 -74 11 -5 27 -27 36 -50 8 -22 38 -66 65 -98 62 -70 81 -75
262 -76 162 0 229 12 236 43 3 12 5 1096 6 2409 0 2335 0 2388 -19 2398 -22
12 -349 13 -368 2 -10 -7 -13 -387 -13 -2007 -1 -1956 -1 -2000 -20 -2037 -18
-35 -23 -38 -64 -38 -69 0 -91 13 -121 72 -15 29 -42 73 -60 97 -19 24 -34 53
-34 64 0 10 -15 33 -34 51 -18 17 -44 51 -56 76 -13 25 -35 60 -51 77 -15 18
-33 51 -39 73 -6 24 -21 47 -36 57 -14 9 -38 43 -54 77 -16 34 -37 66 -48 73
-11 6 -28 33 -38 60 -10 26 -28 58 -41 70 -13 13 -34 45 -47 73 -13 27 -34 59
-48 69 -14 11 -33 42 -43 68 -10 26 -30 62 -46 78 -15 17 -35 48 -44 69 -9 22
-28 48 -41 59 -14 10 -34 39 -46 63 -11 24 -24 44 -29 44 -13 0 -59 84 -59
109 0 12 -15 36 -34 54 -18 18 -44 50 -56 72 -13 22 -36 55 -51 72 -16 18 -33
50 -39 72 -6 23 -21 46 -36 56 -14 9 -37 41 -51 71 -13 29 -36 63 -50 74 -14
11 -32 38 -40 61 -7 23 -24 50 -37 60 -21 17 -47 72 -60 129 -3 14 -15 30 -28
35 -13 6 -34 31 -48 56 -14 26 -40 63 -57 84 -18 21 -35 53 -39 71 -3 19 -16
40 -30 49 -13 8 -33 34 -45 58 -12 23 -39 63 -60 88 -21 25 -41 57 -44 71 -4
14 -18 37 -32 50 -14 12 -35 46 -48 75 -13 28 -37 66 -54 84 -17 18 -34 44
-38 58 -3 14 -20 40 -38 58 -20 19 -39 54 -51 91 -14 43 -26 64 -46 75 -15 9
-35 34 -44 56 -9 22 -25 43 -35 46 -22 7 -59 73 -59 105 0 12 -15 35 -34 53
-19 18 -41 48 -49 67 -8 19 -28 50 -45 68 -18 19 -37 52 -44 73 -6 23 -23 49
-39 60 -18 13 -34 40 -48 82 -15 44 -31 70 -55 89 -18 15 -37 39 -40 55 -4 15
-16 33 -27 41 -11 8 -31 31 -45 53 l-24 39 -183 0 c-100 0 -188 -4 -195 -8z"/>
<path d="M14224 6948 c-20 -9 -21 -18 -23 -141 l-1 -132 31 -38 30 -37 664 0
c627 0 666 -1 707 -19 24 -10 53 -30 66 -43 l23 -25 -1 -2177 0 -2177 20 -30
21 -29 138 1 c137 0 139 0 165 28 l26 27 2 2169 3 2170 25 33 c14 19 43 42 64
53 38 18 71 19 696 19 l656 0 38 39 37 38 -7 132 c-7 128 -8 133 -31 142 -35
13 -3322 11 -3349 -3z"/>
<path d="M18421 6946 c-18 -21 -11 -4810 7 -4828 9 -9 61 -14 186 -16 l173 -4
6 24 c4 13 7 461 7 996 0 1028 -1 1014 45 1052 16 13 115 15 729 18 482 2 723
0 747 -8 48 -13 113 -81 130 -134 7 -22 20 -50 30 -61 24 -28 45 -73 59 -125
7 -24 25 -59 40 -77 26 -29 50 -87 50 -120 0 -7 14 -25 30 -40 21 -18 37 -48
52 -96 11 -38 26 -71 33 -73 15 -6 50 -83 65 -142 6 -24 18 -46 26 -49 19 -7
60 -79 69 -120 4 -18 10 -33 14 -33 11 0 57 -96 70 -146 6 -23 18 -48 27 -55
19 -16 49 -74 58 -114 4 -16 20 -43 36 -60 16 -17 35 -55 45 -90 10 -33 27
-71 40 -85 30 -33 40 -55 55 -117 8 -37 18 -54 32 -59 19 -6 48 -61 62 -119 4
-16 16 -40 27 -51 11 -12 31 -41 44 -65 l23 -44 186 -3 185 -2 33 29 c18 17
27 31 21 31 -17 0 -38 43 -53 108 -9 38 -20 58 -40 72 -20 14 -34 38 -45 78
-10 31 -20 59 -24 62 -20 15 -52 68 -62 102 -5 22 -25 59 -44 83 -18 25 -36
62 -40 85 -4 23 -19 56 -35 73 -31 37 -54 79 -64 121 -4 16 -18 37 -31 47 -23
19 -55 95 -55 130 0 10 -14 33 -31 50 -31 31 -68 101 -69 127 0 7 -13 24 -28
37 -19 16 -35 45 -48 87 -10 35 -29 72 -42 83 -13 12 -30 48 -41 88 -14 48
-28 74 -49 92 -18 15 -34 43 -42 71 -8 26 -26 61 -41 79 -17 19 -34 58 -45
100 -14 54 -26 77 -51 100 -25 23 -36 45 -47 91 -7 34 -11 74 -9 88 6 29 37
56 66 56 10 0 30 13 45 29 24 26 102 61 136 61 7 0 24 13 37 29 13 16 40 36
60 44 20 8 55 31 77 51 21 20 55 43 74 51 23 9 38 23 42 40 4 14 28 50 54 79
101 116 124 148 133 184 11 40 47 113 61 123 5 3 18 47 28 97 11 50 33 118 50
151 l31 60 6 218 c7 271 -5 410 -40 473 -14 25 -33 83 -41 130 -12 60 -25 97
-46 126 -16 22 -32 54 -36 70 -11 45 -29 76 -73 122 -23 24 -41 51 -41 61 0
11 -15 28 -36 40 -19 12 -40 34 -45 50 -7 21 -21 33 -45 41 -21 7 -40 23 -49
41 -9 16 -30 35 -48 43 -19 7 -47 29 -63 49 -21 25 -44 40 -84 51 -30 9 -70
26 -89 39 -64 41 -76 47 -106 47 -47 0 -136 27 -168 51 -18 13 -54 24 -96 30
-36 4 -544 8 -1127 9 -883 0 -1063 -2 -1073 -14z m2069 -345 c36 -6 98 -15
138 -20 104 -15 147 -28 180 -55 15 -14 55 -35 87 -48 40 -16 64 -32 72 -49 7
-14 31 -34 53 -44 23 -10 45 -29 51 -45 7 -14 25 -34 40 -43 16 -8 35 -33 44
-54 9 -21 27 -49 39 -63 31 -33 43 -58 56 -114 5 -25 19 -55 30 -66 31 -31 40
-63 56 -190 31 -265 3 -591 -56 -645 -11 -10 -20 -23 -20 -30 0 -29 -40 -129
-55 -138 -9 -5 -25 -29 -36 -54 -11 -26 -41 -68 -67 -94 -26 -27 -54 -56 -62
-64 -16 -16 -117 -96 -137 -108 -7 -5 -38 -15 -69 -23 -31 -8 -70 -25 -86 -39
-72 -60 -182 -67 -1088 -69 -721 -1 -777 0 -807 17 -22 12 -35 28 -42 55 -17
58 -15 1889 2 1921 6 14 28 34 47 45 32 19 57 21 320 27 401 8 1232 2 1310
-10z"/>
<path d="M29306 6947 c-17 -12 -18 -126 -17 -2402 1 -2077 3 -2391 15 -2411
14 -21 24 -22 188 -29 95 -4 481 -5 858 -3 615 4 712 7 945 27 240 22 262 25
285 47 14 12 48 28 75 34 28 7 69 17 92 22 23 6 44 16 47 24 6 16 70 49 114
59 18 4 53 24 77 45 24 21 58 41 76 45 19 4 37 18 48 36 9 16 28 34 44 40 15
6 34 26 43 44 9 19 28 39 45 45 18 8 35 26 44 46 7 18 27 40 43 48 21 11 32
25 36 49 4 19 21 49 41 69 26 26 39 51 52 102 11 45 26 78 45 98 20 21 34 52
44 96 17 71 27 96 54 127 25 29 29 53 45 283 28 386 16 1953 -16 2230 -8 70
-16 99 -30 113 -24 24 -32 44 -54 135 -11 42 -28 81 -44 100 -15 17 -35 59
-45 98 -12 44 -28 77 -47 96 -16 16 -29 35 -29 43 0 15 -88 126 -166 209 -24
26 -44 51 -44 56 0 6 -25 20 -56 32 -34 14 -65 35 -80 56 -15 19 -38 36 -56
39 -16 4 -46 22 -65 40 -23 22 -50 36 -77 40 -57 10 -158 45 -177 62 -10 8
-77 25 -151 37 -74 13 -153 33 -178 45 -29 14 -78 26 -135 31 -49 5 -491 10
-981 10 -714 0 -894 -3 -908 -13z m1884 -365 c183 -20 236 -32 282 -62 24 -16
66 -34 93 -40 50 -11 115 -45 115 -60 0 -5 24 -16 53 -25 28 -10 66 -31 82
-47 17 -16 56 -52 87 -81 108 -98 143 -143 157 -195 7 -24 21 -51 32 -60 27
-22 55 -77 63 -126 4 -21 21 -64 37 -95 16 -31 34 -78 41 -106 15 -68 23
-1969 9 -2180 -10 -150 -27 -232 -54 -263 -7 -10 -22 -48 -32 -86 -10 -40 -29
-82 -45 -100 -15 -17 -35 -53 -46 -79 -10 -27 -35 -66 -56 -87 -20 -21 -39
-47 -42 -58 -4 -11 -20 -25 -37 -32 -16 -7 -37 -26 -45 -42 -8 -16 -30 -36
-47 -43 -18 -7 -48 -29 -68 -49 -24 -22 -57 -41 -92 -51 -30 -9 -61 -23 -69
-32 -21 -25 -75 -44 -171 -59 -52 -7 -97 -20 -107 -29 -10 -9 -40 -24 -67 -33
-43 -15 -129 -17 -778 -19 -579 -3 -735 -1 -755 10 -19 9 -29 28 -43 77 -16
61 -17 182 -18 1975 -1 1051 2 1928 6 1950 11 69 36 115 69 130 26 11 148 13
686 11 394 -2 697 -8 760 -14z"/>
<path d="M33935 6948 c-7 -18 -1 -4825 5 -4832 3 -3 85 -7 182 -10 l177 -4 10
29 c15 44 15 4797 0 4815 -16 19 -367 20 -374 2z"/>
<path d="M37037 6953 c-3 -5 -10 -27 -16 -51 -7 -23 -26 -58 -42 -77 -26 -29
-33 -48 -40 -112 -9 -72 -38 -155 -58 -167 -5 -3 -17 -41 -26 -83 -19 -86 -37
-128 -58 -136 -9 -3 -20 -34 -27 -74 -13 -67 -55 -173 -70 -173 -4 0 -12 -33
-19 -72 -14 -81 -39 -146 -64 -167 -9 -7 -19 -29 -23 -50 -11 -69 -36 -131
-59 -149 -16 -13 -25 -33 -30 -72 -13 -104 -37 -191 -59 -218 -12 -15 -28 -54
-36 -87 -15 -66 -45 -135 -60 -135 -10 0 -22 -42 -39 -134 -6 -33 -22 -76 -36
-95 -14 -21 -30 -67 -39 -111 -18 -95 -30 -124 -55 -142 -14 -10 -25 -37 -36
-87 -15 -72 -35 -122 -62 -152 -7 -9 -18 -45 -23 -80 -12 -78 -36 -147 -61
-174 -10 -11 -25 -53 -35 -94 -12 -56 -23 -81 -44 -100 -24 -21 -32 -42 -45
-116 -17 -93 -36 -148 -59 -175 -7 -8 -19 -49 -26 -90 -15 -84 -28 -116 -59
-144 -11 -10 -23 -35 -26 -55 -14 -84 -28 -128 -52 -160 -18 -23 -32 -62 -44
-121 -16 -82 -41 -140 -59 -140 -4 0 -16 -35 -25 -77 -11 -51 -28 -95 -50
-128 -21 -31 -35 -67 -38 -96 -8 -67 -25 -125 -49 -167 -12 -20 -32 -75 -44
-122 -17 -60 -30 -91 -48 -105 -27 -22 -43 -95 -32 -140 l6 -25 179 0 178 0
47 52 c40 44 49 63 62 120 16 77 36 123 58 131 8 3 17 27 21 59 12 102 37 199
59 231 13 18 31 69 41 112 13 52 28 89 45 109 19 22 31 52 40 101 11 65 28
107 81 208 37 72 -39 68 1227 65 1242 -3 1181 0 1210 -60 7 -15 17 -52 23 -83
5 -30 23 -77 39 -103 21 -33 34 -75 45 -142 13 -73 22 -101 41 -121 17 -17 30
-52 43 -113 12 -53 27 -97 40 -110 25 -27 39 -64 56 -152 7 -39 24 -87 38
-107 13 -19 29 -57 36 -84 22 -87 30 -96 96 -110 90 -18 280 -17 310 3 30 19
38 40 25 64 -6 11 -17 54 -26 97 -8 43 -23 89 -33 103 -32 46 -49 95 -61 172
-7 43 -17 78 -22 78 -17 0 -48 65 -63 135 -9 38 -28 87 -41 107 -18 25 -33 71
-47 146 -18 88 -27 115 -48 136 -18 18 -30 46 -39 88 -7 35 -23 79 -36 98 -31
46 -53 111 -61 178 -4 40 -14 64 -35 88 -21 24 -33 53 -45 111 -10 52 -25 92
-45 119 -19 27 -36 70 -48 123 -10 46 -25 90 -33 99 -24 27 -38 70 -53 167
-10 65 -19 94 -33 105 -25 20 -36 44 -56 120 -9 35 -25 75 -36 88 -22 28 -43
95 -60 185 -6 38 -22 76 -40 101 -16 24 -35 70 -44 111 -9 39 -25 79 -35 90
-24 26 -37 60 -56 153 -9 42 -24 87 -35 101 -21 27 -44 100 -54 174 -4 32 -16
59 -35 81 -21 23 -35 56 -47 107 -9 41 -25 83 -34 94 -30 33 -47 87 -58 176
-8 61 -16 88 -29 99 -27 23 -39 48 -56 124 -10 40 -27 81 -41 98 -14 16 -28
42 -31 56 -3 15 -10 41 -14 57 -5 17 -11 47 -15 68 -3 20 -19 56 -34 80 -18
27 -34 72 -45 126 -11 58 -23 89 -36 98 -20 14 -41 71 -61 167 -18 85 -24 86
-313 86 -129 0 -237 -3 -239 -7z m295 -474 c22 -12 43 -55 58 -122 5 -25 21
-57 34 -71 13 -15 29 -48 35 -74 28 -111 34 -128 57 -155 28 -33 40 -73 53
-185 9 -70 15 -87 35 -103 19 -15 29 -39 42 -97 9 -42 25 -86 35 -97 28 -31
46 -82 60 -170 8 -52 22 -97 40 -127 16 -27 36 -83 45 -130 9 -47 23 -87 31
-91 20 -12 48 -81 63 -152 7 -32 23 -75 35 -94 26 -41 38 -81 56 -193 9 -59
16 -79 29 -83 21 -7 44 -60 55 -124 4 -25 23 -74 41 -110 22 -43 38 -92 45
-141 8 -53 21 -91 44 -130 20 -35 37 -81 45 -125 7 -40 23 -85 36 -106 30 -44
30 -50 -2 -89 -49 -58 -72 -62 -344 -59 -135 2 -389 1 -565 -1 -176 -3 -482
-5 -680 -5 -325 0 -363 2 -392 18 -18 9 -37 26 -43 36 -24 46 -3 184 36 230
13 16 31 58 40 97 18 78 29 103 55 124 14 11 23 42 34 107 15 94 27 129 56
173 9 14 24 57 33 97 21 92 30 117 55 140 14 13 25 45 35 102 10 57 22 93 40
116 18 23 32 63 45 128 19 93 43 157 60 157 5 0 14 24 21 53 24 111 34 139 60
172 20 25 29 51 34 93 9 77 37 177 57 200 9 10 24 52 34 93 17 72 46 134 65
141 6 2 17 44 26 93 10 61 24 105 43 136 17 28 35 80 46 130 22 112 50 157
120 193 36 19 32 19 57 5z"/>
<path d="M44457 6949 c-17 -10 -18 -60 -15 -1037 2 -565 1 -1643 0 -2396 l-4
-1369 30 -29 29 -30 132 9 c110 8 135 13 152 29 19 20 19 46 23 1972 4 1792 5
1955 21 1978 19 29 53 44 99 44 36 0 56 -17 75 -67 7 -18 33 -53 58 -79 24
-26 47 -60 50 -75 3 -16 14 -31 25 -35 12 -3 31 -31 48 -67 15 -34 39 -73 54
-87 15 -13 32 -44 38 -68 8 -32 18 -47 40 -58 16 -8 36 -31 44 -50 8 -18 32
-58 54 -86 22 -29 40 -64 40 -77 0 -14 14 -36 34 -55 19 -17 44 -54 56 -81 12
-28 34 -62 50 -76 16 -15 33 -44 39 -65 6 -22 19 -44 29 -51 11 -6 32 -33 47
-60 15 -26 45 -67 67 -90 21 -24 38 -51 38 -61 0 -11 15 -34 33 -53 19 -19 42
-57 53 -84 10 -28 33 -64 51 -81 18 -17 33 -40 33 -51 0 -10 18 -37 39 -60 23
-23 45 -59 52 -84 8 -27 28 -58 51 -80 21 -20 38 -42 38 -50 0 -8 18 -34 40
-58 25 -27 45 -61 52 -88 7 -31 18 -48 38 -58 17 -9 33 -31 45 -62 10 -26 29
-59 43 -73 33 -33 62 -81 62 -102 0 -10 6 -18 13 -18 21 0 46 -32 63 -83 8
-25 31 -60 49 -79 19 -18 37 -46 41 -61 3 -16 20 -41 38 -57 17 -16 40 -51 49
-78 10 -27 31 -62 47 -77 16 -16 34 -43 40 -61 7 -19 23 -43 37 -54 14 -11 38
-46 53 -77 15 -32 39 -69 54 -82 14 -13 29 -39 32 -58 4 -19 18 -43 34 -56 31
-24 70 -91 70 -119 0 -10 10 -23 23 -29 28 -15 35 -25 48 -72 5 -21 21 -48 34
-59 14 -12 37 -40 52 -62 15 -23 42 -58 60 -78 18 -21 36 -50 39 -65 4 -16 24
-48 46 -72 21 -24 43 -61 49 -81 7 -24 21 -42 36 -49 13 -6 32 -30 42 -53 10
-24 28 -52 40 -62 11 -11 21 -24 21 -30 0 -6 12 -24 27 -41 l26 -30 173 0
c169 0 173 1 198 24 l26 24 0 2394 0 2393 -26 10 c-35 14 -290 13 -315 -1 -20
-10 -20 -19 -17 -2012 3 -1936 2 -2003 -16 -2039 -18 -37 -20 -38 -60 -32 -74
10 -97 24 -117 70 -10 24 -28 49 -39 56 -23 14 -70 97 -70 122 0 9 -12 23 -26
33 -14 9 -36 40 -48 68 -13 28 -37 67 -53 86 -17 18 -35 50 -42 70 -6 20 -22
42 -35 49 -22 11 -66 101 -66 135 0 8 -12 20 -27 27 -16 7 -37 31 -48 53 -11
22 -32 53 -47 69 -16 16 -36 53 -45 84 -11 35 -25 58 -39 64 -22 10 -44 47
-44 73 0 8 -15 31 -34 51 -19 20 -42 52 -52 72 -11 21 -33 51 -51 69 -17 18
-34 46 -38 63 -4 16 -27 50 -51 76 -25 25 -48 59 -51 75 -3 17 -16 37 -28 45
-13 8 -33 41 -46 72 -12 31 -37 73 -54 92 -18 19 -38 51 -44 70 -7 21 -23 42
-40 51 -20 12 -34 32 -45 65 -9 27 -32 67 -50 88 -19 21 -37 54 -41 72 -4 22
-15 39 -35 51 -24 14 -70 91 -70 118 0 3 -13 18 -30 31 -17 15 -34 43 -40 65
-6 22 -20 48 -31 57 -11 9 -32 37 -46 62 -15 25 -39 59 -54 75 -16 17 -35 49
-43 72 -8 23 -33 65 -55 93 -23 29 -44 63 -47 75 -3 13 -17 31 -31 40 -13 9
-32 35 -42 58 -10 23 -32 57 -49 75 -18 19 -37 53 -43 75 -7 25 -26 54 -46 72
-25 22 -38 46 -49 89 -10 37 -24 66 -38 77 -13 10 -31 39 -41 64 -11 29 -26
50 -40 55 -13 5 -36 31 -51 57 -16 26 -43 63 -61 81 -18 19 -33 43 -33 54 0
11 -14 33 -30 48 -31 29 -69 102 -70 132 0 10 -13 24 -29 32 -18 10 -35 31
-46 58 -9 24 -27 54 -40 68 -26 29 -49 73 -59 112 -3 15 -15 32 -26 38 -11 6
-32 29 -45 50 l-25 40 -188 0 c-111 0 -194 -5 -205 -11z"/>
<path d="M57423 6953 c-19 -7 -18 -272 1 -318 l15 -35 678 -3 c479 -2 690 -6
718 -14 22 -7 50 -24 63 -38 l22 -26 0 -2178 c0 -1556 3 -2187 11 -2210 l11
-31 136 0 c127 0 138 2 179 25 l43 26 1 2167 c0 1651 3 2175 12 2202 9 25 23
41 52 55 38 19 66 20 700 25 713 6 727 7 746 58 5 14 8 84 7 155 -3 130 -3
131 -28 138 -28 8 -3348 10 -3367 2z"/>
<path d="M61754 6950 c-15 -6 -23 -20 -27 -54 -4 -25 -7 -1103 -7 -2394 l0
-2348 31 -30 30 -29 132 3 c121 3 133 5 149 25 17 21 18 163 18 2423 0 2181
-1 2402 -16 2408 -24 9 -286 6 -310 -4z"/>
</g>
</svg>
